<svg version="1.1" id="Layer_1" xmlns="http://www.w3.org/2000/svg" xmlns:xlink="http://www.w3.org/1999/xlink" x="0px" y="0px"
	 width="100%" viewBox="0 0 2601 1887" enable-background="new 0 0 2601 1887" xml:space="preserve">
<path fill="#000101" opacity="1.000000" stroke="none" 
	d="
M2604.000000,606.000000 
	C2604.000000,1034.666626 2604.000000,1462.333374 2604.000000,1890.000000 
	C1736.666626,1890.000000 869.333313,1890.000000 2.000000,1890.000000 
	C2.000000,1260.666626 2.000000,631.333313 2.000000,2.000000 
	C869.333313,2.000000 1736.666626,2.000000 2604.000000,2.000000 
	C2604.000000,203.000000 2604.000000,404.000000 2604.000000,606.000000 
M1376.307007,633.000061 
	C1376.307007,464.346558 1376.306641,295.693054 1376.310059,127.039558 
	C1376.310181,123.373390 1376.191772,119.697220 1376.414673,116.043175 
	C1376.854492,108.837296 1378.868896,106.725906 1386.193970,106.149254 
	C1390.502563,105.810081 1394.854614,105.993469 1399.187134,105.993401 
	C1717.828125,105.988617 2036.469116,105.989197 2355.110107,105.988686 
	C2391.773926,105.988625 2428.438232,105.862167 2465.100586,106.092873 
	C2471.896240,106.135635 2477.474365,104.415001 2482.227295,99.648651 
	C2495.406494,86.431793 2508.668701,73.297272 2521.761719,59.995552 
	C2523.375244,58.356377 2524.159424,55.900646 2526.344971,52.015224 
	C2519.987793,52.015224 2515.731934,52.015224 2511.475830,52.015224 
	C2119.840820,52.015217 1728.205566,52.015030 1336.570435,52.018475 
	C1333.570923,52.018501 1330.559204,51.903721 1327.574585,52.128479 
	C1321.308594,52.600353 1320.248779,53.611256 1319.846680,60.072697 
	C1319.557373,64.722717 1319.697876,69.401344 1319.697876,74.067215 
	C1319.693115,454.703217 1319.693604,835.339233 1319.691040,1215.975220 
	C1319.691040,1219.974731 1319.808350,1223.982178 1319.603516,1227.972168 
	C1319.192261,1235.985229 1317.490234,1237.569092 1309.187256,1237.957275 
	C1306.526123,1238.081665 1303.855347,1238.011841 1301.188965,1238.012085 
	C1269.858154,1238.014771 1238.527344,1238.014038 1207.196533,1238.014038 
	C1049.209229,1238.014404 891.221985,1238.012085 733.234680,1238.027466 
	C729.058167,1238.027832 724.881653,1238.218018 718.273010,1238.378906 
	C722.219910,1243.590332 724.404236,1247.196167 727.272522,1250.134155 
	C738.446777,1261.579712 750.088623,1272.577393 761.055176,1284.214111 
	C767.734009,1291.301025 775.240784,1294.128418 784.978149,1294.119385 
	C976.962524,1293.940063 1168.947144,1293.986450 1360.931641,1293.983887 
	C1362.931274,1293.983765 1364.937988,1294.045898 1366.929077,1293.905029 
	C1374.109863,1293.396973 1375.741211,1291.911987 1376.170776,1284.943970 
	C1376.437012,1280.625854 1376.302490,1276.281494 1376.302612,1271.948853 
	C1376.307251,1059.632568 1376.306885,847.316345 1376.307007,633.000061 
M2153.000000,129.997498 
	C1909.365479,129.997528 1665.731079,129.997269 1422.096558,130.000000 
	C1418.097168,130.000046 1414.088257,129.866302 1410.100586,130.093323 
	C1402.825928,130.507507 1400.868042,132.463577 1400.439209,139.915588 
	C1400.171265,144.567535 1400.317871,149.244675 1400.317871,153.910507 
	C1400.314209,538.528503 1400.314575,923.146545 1400.311523,1307.764526 
	C1400.311523,1311.763794 1400.417725,1315.770752 1400.213501,1319.760620 
	C1399.844482,1326.967285 1398.728882,1328.395630 1391.493042,1329.406372 
	C1386.902466,1330.047607 1382.192017,1329.975586 1377.535278,1329.976196 
	C1193.891846,1330.001099 1010.248474,1329.997437 826.605042,1329.999268 
	C822.938904,1329.999268 819.262756,1329.863892 815.610474,1330.094971 
	C813.504517,1330.228149 811.437195,1330.970947 807.465149,1331.863281 
	C812.221619,1337.239990 815.723511,1341.562866 819.604919,1345.512817 
	C828.702454,1354.771118 838.481873,1363.410645 847.038757,1373.133667 
	C854.730591,1381.873901 863.494934,1385.282593 875.081787,1385.268921 
	C1063.390991,1385.045776 1251.700562,1385.113037 1440.010132,1385.100952 
	C1443.007080,1385.100830 1446.005737,1384.967896 1449.000488,1384.828857 
	C1453.461792,1384.621948 1455.583374,1382.215088 1455.577881,1377.776855 
	C1455.572144,1373.111328 1455.680664,1368.445801 1455.680664,1363.780273 
	C1455.685913,978.828979 1455.684937,593.877747 1455.692017,208.926468 
	C1455.692139,204.261414 1455.819092,199.596451 1455.830444,194.931305 
	C1455.842407,190.003876 1458.421875,187.559937 1463.189697,187.387939 
	C1468.183350,187.207809 1473.182983,187.129715 1478.180054,187.129517 
	C1775.142456,187.117981 2072.104980,187.119324 2369.067383,187.117599 
	C2374.066650,187.117569 2379.068115,187.001694 2384.064941,187.103073 
	C2393.616455,187.296814 2401.618652,184.052765 2408.097900,176.934769 
	C2419.530273,164.374893 2431.103027,151.942017 2442.485840,139.337433 
	C2443.919434,137.749954 2444.559326,135.445709 2445.471191,133.660797 
	C2441.090576,128.545471 2435.752930,130.066895 2430.965088,130.062439 
	C2338.976807,129.976807 2246.988281,129.998215 2153.000000,129.997498 
M1534.307007,1263.000000 
	C1534.307129,936.012329 1534.306152,609.024719 1534.310913,282.037048 
	C1534.311157,264.002441 1534.333984,263.991333 1552.609985,263.991028 
	C1741.603027,263.988129 1930.596069,263.989471 2119.589111,263.988800 
	C2181.920166,263.988556 2244.251465,263.891785 2306.581787,264.107025 
	C2314.139648,264.133118 2320.065186,262.085968 2325.326660,256.696350 
	C2337.899170,243.817703 2350.807617,231.267059 2363.390869,218.398880 
	C2365.714844,216.022430 2367.150391,212.777359 2370.240723,208.015396 
	C2363.901123,208.015396 2359.986572,208.015396 2356.072266,208.015396 
	C2069.416016,208.015457 1782.759888,208.014877 1496.103760,208.023148 
	C1492.771973,208.023239 1489.408936,207.870575 1486.114868,208.254837 
	C1479.540649,209.021790 1478.161865,210.507751 1477.817627,217.101181 
	C1477.574707,221.756119 1477.696899,226.431381 1477.696777,231.097565 
	C1477.692993,616.083435 1477.684326,1001.069336 1477.715698,1386.055176 
	C1477.717529,1408.943970 1477.828979,1407.128174 1456.195557,1407.131348 
	C1281.535278,1407.156738 1106.875122,1407.145386 932.214844,1407.146851 
	C920.881958,1407.146973 909.547729,1407.065552 898.216858,1407.220337 
	C894.748352,1407.267578 891.288818,1407.977661 885.698364,1408.633911 
	C888.932312,1412.794434 890.649292,1415.486206 892.829407,1417.727783 
	C904.679321,1429.910522 916.599487,1442.026123 928.589294,1454.071289 
	C933.501160,1459.005737 939.722595,1461.294067 946.562683,1461.833252 
	C949.877747,1462.094482 953.224854,1461.983521 956.557495,1461.983643 
	C1141.884033,1461.989014 1327.210571,1461.988525 1512.537109,1461.987671 
	C1514.536987,1461.987671 1516.537598,1462.009766 1518.536621,1461.966431 
	C1533.506836,1461.642700 1534.288818,1460.896851 1534.294434,1445.993408 
	C1534.317017,1385.662231 1534.305908,1325.331177 1534.307007,1263.000000 
M1297.000000,1539.998169 
	C1395.650146,1539.998047 1494.300415,1539.998657 1592.950562,1539.994629 
	C1596.283081,1539.994507 1599.627075,1540.114990 1602.945679,1539.887695 
	C1609.419312,1539.444336 1611.037598,1537.918213 1611.500610,1531.354980 
	C1611.828369,1526.709961 1611.669312,1522.028198 1611.669312,1517.362915 
	C1611.674805,1133.758179 1611.674438,750.153564 1611.676147,366.548859 
	C1611.676147,361.883026 1611.588623,357.213593 1611.737305,352.552094 
	C1612.047607,342.820862 1613.297974,341.524139 1622.690552,341.179352 
	C1627.017944,341.020538 1631.354736,341.104645 1635.687256,341.104584 
	C1827.656250,341.101898 2019.625244,341.104492 2211.594238,341.092896 
	C2218.592285,341.092468 2225.590332,340.970978 2232.588135,340.879517 
	C2238.523682,340.801941 2243.434570,338.709473 2247.692871,334.347321 
	C2259.797852,321.946930 2272.219238,309.855530 2284.352539,297.482056 
	C2286.992432,294.789917 2288.950439,291.428986 2292.536621,286.610291 
	C2286.420166,286.343079 2282.574951,286.028442 2278.729736,286.028076 
	C2043.101074,286.004700 1807.472534,286.006439 1571.843872,286.014008 
	C1568.845703,286.014099 1565.844360,286.050781 1562.850098,286.190033 
	C1558.472534,286.393616 1556.117554,288.819122 1555.932251,293.136749 
	C1555.732178,297.795135 1555.691650,302.463135 1555.691528,307.126923 
	C1555.681519,692.064697 1555.663330,1077.002563 1555.724365,1461.940308 
	C1555.728394,1487.376831 1555.037720,1483.966431 1533.203003,1483.973145 
	C1351.232422,1484.029663 1169.261841,1484.004883 987.291260,1484.009155 
	C983.292297,1484.009155 979.271057,1483.820557 975.302551,1484.182739 
	C972.875427,1484.404541 970.529175,1485.511475 966.432617,1486.731079 
	C969.629089,1491.043335 971.567993,1494.384277 974.184875,1497.062988 
	C985.130554,1508.266724 996.643982,1518.937622 1007.221985,1530.470947 
	C1013.904480,1537.756958 1021.297791,1540.202759 1031.043213,1540.170044 
	C1119.028076,1539.874634 1207.014160,1539.997681 1297.000000,1539.998169 
M1231.676880,1127.000000 
	C1231.682617,1148.996216 1231.618530,1170.992920 1231.723389,1192.988647 
	C1231.775635,1203.927979 1232.721313,1204.833008 1243.818970,1205.039795 
	C1252.814453,1205.207397 1261.815308,1205.128296 1270.813599,1205.098022 
	C1287.467773,1205.041992 1287.671387,1204.864136 1287.671753,1188.442627 
	C1287.679688,815.507019 1287.678101,442.571411 1287.670898,69.635811 
	C1287.670898,66.637444 1287.657959,63.634087 1287.492554,60.641823 
	C1287.208130,55.504520 1284.221191,52.724606 1279.289917,52.246361 
	C1275.653564,51.893700 1271.966553,52.010098 1268.302124,52.010021 
	C878.702759,52.001740 489.103333,52.002003 99.503960,52.005806 
	C96.171585,52.005840 92.792061,51.728306 89.521469,52.192623 
	C86.812836,52.577160 84.232697,53.866829 80.011993,55.289139 
	C83.335442,59.348537 85.371422,62.261234 87.827934,64.760605 
	C97.405800,74.505539 107.060982,84.176231 116.790764,93.769714 
	C133.981064,110.719193 128.643616,109.088287 154.183517,109.090424 
	C505.456177,109.119804 856.728821,109.109619 1208.001465,109.117821 
	C1212.999390,109.117943 1217.997070,109.268608 1222.995117,109.277832 
	C1228.304321,109.287628 1231.032593,112.149124 1231.361816,117.186104 
	C1231.687378,122.166817 1231.666138,127.175209 1231.666260,132.171463 
	C1231.678223,463.114319 1231.676880,794.057129 1231.676880,1127.000000 
M1699.000000,366.009949 
	C1689.669922,366.009949 1680.339844,366.007111 1671.009766,366.010834 
	C1663.011353,366.014008 1655.010864,365.908630 1647.015259,366.061707 
	C1637.143433,366.250671 1636.006714,367.402039 1635.737549,376.937897 
	C1635.615356,381.267151 1635.689209,385.602173 1635.689209,389.934601 
	C1635.687744,678.876465 1635.687988,967.818359 1635.687866,1256.760254 
	C1635.687744,1352.407715 1635.690308,1448.055054 1635.674927,1543.702515 
	C1635.674316,1547.698853 1635.844971,1551.738647 1635.340820,1555.682251 
	C1634.371338,1563.267090 1632.763306,1564.633301 1625.084351,1565.020142 
	C1620.761719,1565.238037 1616.421631,1565.135132 1612.089478,1565.135254 
	C1430.459351,1565.139282 1248.829224,1565.138550 1067.199097,1565.141113 
	C1062.866699,1565.141235 1058.525146,1565.006958 1054.205078,1565.246460 
	C1051.028320,1565.422363 1047.879761,1566.107178 1043.479248,1566.744873 
	C1045.619385,1569.676880 1046.711792,1571.647827 1048.238159,1573.188843 
	C1059.726562,1584.787231 1071.745117,1595.897461 1082.699829,1607.975098 
	C1090.753418,1616.854126 1099.748779,1620.203979 1111.710938,1620.186279 
	C1299.006226,1619.910156 1486.302124,1619.993042 1673.597778,1619.989014 
	C1676.596802,1619.988892 1679.609009,1620.104126 1682.591919,1619.870361 
	C1688.855713,1619.379639 1690.946167,1617.508301 1691.454102,1611.380737 
	C1691.838501,1606.743652 1691.662476,1602.056519 1691.662598,1597.391724 
	C1691.669312,1212.469116 1691.668335,827.546570 1691.676758,442.623962 
	C1691.676880,438.292938 1691.677979,433.956360 1691.886719,429.632416 
	C1692.112549,424.956970 1694.496948,422.206573 1699.407349,422.124298 
	C1703.072144,422.062897 1706.737427,421.999237 1710.402588,421.999054 
	C1856.373169,421.991974 2002.343994,421.926300 2148.314209,422.134308 
	C2158.395508,422.148651 2166.418457,419.475433 2173.129883,411.938446 
	C2184.196045,399.511414 2195.564941,387.354370 2206.761719,375.043152 
	C2208.780273,372.823822 2210.906494,370.489502 2208.002441,366.009949 
	C2039.478271,366.009949 1870.239136,366.009949 1699.000000,366.009949 
M2066.728516,498.852539 
	C2074.773193,498.852905 2082.875732,498.994934 2089.178467,492.707428 
	C2102.156982,479.760101 2115.156006,466.831940 2128.000488,453.752380 
	C2129.611816,452.111389 2130.342285,449.604828 2132.243408,446.089050 
	C2125.864014,445.694733 2121.305420,445.168304 2116.746582,445.166748 
	C1987.417358,445.122467 1858.088135,445.129883 1728.758911,445.138214 
	C1725.760132,445.138397 1722.761475,445.252289 1719.762573,445.302673 
	C1714.876587,445.384705 1712.442993,447.831665 1712.444946,452.749542 
	C1712.446777,457.415283 1712.327881,462.080994 1712.327881,466.746735 
	C1712.321777,851.734375 1712.322998,1236.721924 1712.310913,1621.709595 
	C1712.310791,1626.373291 1712.266602,1631.043457 1712.020630,1635.698853 
	C1711.813843,1639.612183 1709.611328,1641.771973 1705.599365,1641.846680 
	C1701.601074,1641.921143 1697.601807,1641.996338 1693.603027,1641.996460 
	C1509.275635,1642.003906 1324.948242,1642.001343 1140.620850,1642.017700 
	C1136.625610,1642.017944 1132.571899,1641.841309 1128.650879,1642.439209 
	C1124.381348,1643.090088 1123.262695,1646.035278 1125.463379,1649.772217 
	C1126.295654,1651.185425 1127.492676,1652.411743 1128.648071,1653.602295 
	C1140.241455,1665.549438 1151.940796,1677.394897 1163.438843,1689.432861 
	C1169.113892,1695.374390 1175.966064,1697.968994 1184.006348,1697.969360 
	C1192.339355,1697.969727 1200.672363,1697.998657 1209.005371,1697.998779 
	C1388.333008,1698.000488 1567.660522,1698.006592 1746.988159,1697.964966 
	C1751.965942,1697.963867 1756.959595,1697.606934 1761.917236,1697.122681 
	C1766.993530,1696.626709 1769.628784,1693.704712 1769.583496,1688.462524 
	C1769.543213,1683.797119 1769.672974,1679.130737 1769.672974,1674.464722 
	C1769.677979,1290.143677 1769.677368,905.822693 1769.679932,521.501709 
	C1769.679932,517.168640 1769.574097,512.829590 1769.760254,508.503784 
	C1770.106567,500.454254 1771.839478,498.707916 1779.924194,498.100159 
	C1782.577393,497.900726 1785.255249,497.982147 1787.921143,498.007660 
	C1818.239746,498.297974 1848.557617,498.760956 1878.876709,498.865173 
	C1922.208130,499.014069 1965.540527,498.910675 2008.872437,498.890869 
	C2012.869751,498.889038 2016.867188,498.626617 2020.864380,498.632660 
	C2035.505981,498.654846 2050.147461,498.739441 2066.728516,498.852539 
M1153.676880,292.999939 
	C1153.677002,588.651428 1153.677002,884.302856 1153.678223,1179.954346 
	C1153.678223,1184.287476 1153.616211,1188.622192 1153.715820,1192.953247 
	C1153.956543,1203.418457 1155.314209,1204.832153 1166.130249,1205.033325 
	C1175.793335,1205.213013 1185.462280,1205.150391 1195.127808,1205.083252 
	C1209.208130,1204.985352 1209.662354,1204.563232 1209.663086,1190.315063 
	C1209.678589,841.999512 1209.675659,493.683929 1209.674194,145.368347 
	C1209.674194,143.701874 1209.708374,142.032074 1209.620239,140.369476 
	C1209.178833,132.045135 1207.628662,130.423950 1199.585938,130.058548 
	C1196.591797,129.922501 1193.587158,130.003525 1190.587402,130.003510 
	C853.604553,130.001938 516.621704,130.001694 179.638901,130.006821 
	C175.973068,130.006882 172.266937,129.764832 168.655807,130.228851 
	C166.315292,130.529617 164.113525,131.910416 160.581802,133.309494 
	C164.288498,137.644333 166.855804,141.035370 169.817841,144.036865 
	C178.244949,152.576263 186.848541,160.941177 195.354507,169.403091 
	C213.083420,187.040222 210.694901,187.140717 238.129486,187.136795 
	C535.781006,187.094345 833.432495,187.109055 1131.083984,187.121979 
	C1136.081177,187.122208 1141.083252,187.186676 1146.073975,187.417358 
	C1150.791382,187.635437 1153.412109,190.147690 1153.508423,195.008423 
	C1153.567871,198.006989 1153.666504,201.005692 1153.667847,204.004349 
	C1153.680420,233.002869 1153.676147,262.001373 1153.676880,292.999939 
M1846.307007,1353.000000 
	C1846.307617,1099.717651 1846.305420,846.435364 1846.315552,593.153015 
	C1846.316162,577.288879 1847.407104,576.227661 1863.236450,575.999573 
	C1864.236084,575.985168 1865.236084,575.991211 1866.235840,575.991211 
	C1899.229248,575.991089 1932.222778,575.934326 1965.215942,576.029236 
	C1974.200928,576.055115 1983.183472,576.702576 1992.169189,576.765686 
	C2001.263550,576.829529 2008.880005,573.479309 2015.282715,566.770569 
	C2024.713867,556.888611 2034.566528,547.409668 2044.200073,537.719727 
	C2046.780518,535.124146 2049.520508,532.605652 2051.654053,529.664917 
	C2055.487793,524.380188 2053.899170,520.858887 2047.606567,520.159180 
	C2045.298706,519.902588 2042.945801,520.021912 2040.613403,520.021790 
	C1962.629028,520.016602 1884.644531,520.017151 1806.660156,520.021057 
	C1804.660889,520.021118 1802.651611,519.950012 1800.664185,520.117188 
	C1793.679688,520.704712 1792.188721,522.187073 1791.807495,529.473083 
	C1791.563965,534.127075 1791.696411,538.801941 1791.696411,543.467407 
	C1791.692993,928.390442 1791.693726,1313.313477 1791.687622,1698.236572 
	C1791.687622,1702.234985 1791.846191,1706.254272 1791.503052,1710.226929 
	C1790.955322,1716.572266 1789.229980,1718.326172 1782.786255,1718.874634 
	C1778.149658,1719.269165 1773.463135,1719.136597 1768.798828,1719.136841 
	C1587.168457,1719.147217 1405.538086,1719.144775 1223.907715,1719.151611 
	C1219.242676,1719.151855 1214.562012,1719.026367 1209.918945,1719.368896 
	C1207.462769,1719.550293 1205.071899,1720.615234 1201.147583,1721.695190 
	C1204.334106,1725.868896 1206.380615,1729.198853 1209.045166,1731.924927 
	C1219.527100,1742.649292 1230.590332,1752.830566 1240.684448,1763.900513 
	C1248.721924,1772.714844 1257.847412,1776.177490 1269.789307,1776.161621 
	C1456.084961,1775.913696 1642.381226,1775.988525 1828.677246,1775.982178 
	C1831.675903,1775.982056 1834.698608,1776.123047 1837.668091,1775.805420 
	C1843.876465,1775.141113 1845.700562,1773.248901 1846.150146,1766.912720 
	C1846.432617,1762.931519 1846.301514,1758.918701 1846.301758,1754.920044 
	C1846.307495,1621.613403 1846.306885,1488.306641 1846.307007,1353.000000 
M1870.322632,1667.000000 
	C1870.322144,1705.325439 1870.331299,1743.651001 1870.316895,1781.976440 
	C1870.310059,1799.986084 1870.289551,1800.000000 1851.837280,1800.000366 
	C1667.205444,1800.004150 1482.573486,1800.002808 1297.941650,1800.004272 
	C1294.275757,1800.004272 1290.596558,1799.839722 1286.948853,1800.102173 
	C1284.835083,1800.254272 1282.771606,1801.106934 1279.324341,1801.995239 
	C1281.992554,1805.608154 1283.659424,1808.434814 1285.862915,1810.751221 
	C1295.959961,1821.365723 1306.361572,1831.693359 1316.350342,1842.406860 
	C1324.081787,1850.699341 1332.852783,1854.250854 1344.598877,1854.230347 
	C1532.896240,1853.902832 1721.194214,1853.999878 1909.492065,1853.995850 
	C1912.491089,1853.995850 1915.503052,1854.108643 1918.486572,1853.879150 
	C1924.630493,1853.406860 1926.772095,1851.550903 1927.378174,1845.337769 
	C1927.861694,1840.380493 1927.668335,1835.351318 1927.668457,1830.354004 
	C1927.678345,1446.093140 1927.677246,1061.832153 1927.679688,677.571228 
	C1927.679688,672.905518 1927.827026,668.236511 1927.692749,663.575134 
	C1927.569824,659.304382 1929.114014,656.013428 1932.060425,652.886597 
	C1945.070312,639.079285 1957.914673,625.115417 1970.735229,611.131348 
	C1972.381836,609.335327 1973.537842,607.089661 1975.946655,603.542114 
	C1971.078247,602.874817 1967.951660,602.167786 1964.806519,602.071960 
	C1957.813599,601.858826 1950.811523,601.915771 1943.813110,601.926453 
	C1923.509277,601.957520 1903.201294,601.796692 1882.903076,602.158752 
	C1871.666382,602.359070 1870.495239,603.980286 1870.341675,615.197998 
	C1870.291504,618.863281 1870.322754,622.529785 1870.322754,626.195740 
	C1870.322510,972.463806 1870.322754,1318.731934 1870.322632,1667.000000 
M751.000000,263.988983 
	C851.997314,263.989075 952.994629,263.988647 1053.991943,263.991425 
	C1057.325073,263.991516 1060.666870,263.876953 1063.989624,264.071899 
	C1071.324585,264.502319 1073.141968,266.320526 1073.578979,273.903351 
	C1073.828003,278.223419 1073.690186,282.567047 1073.690308,286.900055 
	C1073.693726,585.559692 1073.692749,884.219360 1073.700195,1182.879028 
	C1073.700317,1187.544434 1073.794556,1192.210083 1073.855347,1196.875366 
	C1073.918213,1201.692993 1076.385742,1204.501343 1081.168945,1204.555054 
	C1094.828857,1204.708252 1108.492065,1204.726685 1122.152100,1204.598877 
	C1127.358765,1204.550171 1130.004028,1201.468384 1130.146729,1196.310669 
	C1130.257446,1192.313354 1130.299927,1188.312866 1130.300049,1184.313843 
	C1130.306641,865.654663 1130.306641,546.995422 1130.301636,228.336243 
	C1130.301514,224.670197 1130.464844,220.981918 1130.118652,217.345230 
	C1129.846924,214.488174 1128.905273,211.694839 1128.065308,208.015381 
	C1123.093872,208.015381 1118.805908,208.015366 1114.517944,208.015366 
	C828.191345,208.015503 541.864746,208.015182 255.538116,208.022278 
	C252.539230,208.022354 249.472198,207.751358 246.563202,208.289383 
	C244.268173,208.713852 242.167664,210.189987 238.826599,211.731598 
	C242.240601,215.577835 244.504974,218.377365 247.024933,220.923935 
	C256.871979,230.874893 267.382233,240.240814 276.531372,250.790787 
	C285.405518,261.023651 295.600220,264.277985 309.011047,264.241150 
	C455.673126,263.838501 602.336792,263.988922 751.000000,263.988983 
M2561.673828,895.000061 
	C2561.674072,626.069702 2561.674561,357.139343 2561.671631,88.208984 
	C2561.671631,83.877007 2561.805664,79.533524 2561.527100,75.218086 
	C2561.392822,73.139175 2560.441650,71.113029 2559.606934,68.169128 
	C2557.137695,69.909958 2555.388916,70.833458 2554.023438,72.153503 
	C2540.852539,84.885468 2527.707764,97.644676 2514.639893,110.481857 
	C2508.855713,116.163620 2506.374023,123.292999 2506.585693,131.301743 
	C2506.831543,140.605057 2507.634766,149.902267 2507.635498,159.202179 
	C2507.687744,717.724182 2507.682129,1276.246216 2507.689453,1834.768188 
	C2507.689453,1838.765991 2507.788330,1842.763916 2507.841064,1846.761719 
	C2507.906250,1851.674316 2510.318115,1853.990723 2515.305420,1853.946777 
	C2524.635010,1853.864502 2533.966797,1854.035767 2543.296631,1853.973145 
	C2548.849854,1853.935913 2554.401123,1853.653564 2559.511963,1853.495117 
	C2560.412354,1851.523193 2561.179688,1850.627075 2561.180176,1849.730469 
	C2561.379395,1532.153687 2561.526123,1214.576904 2561.673828,895.000061 
M100.306297,1517.000000 
	C100.306152,1058.348022 100.306122,599.696106 100.304222,141.044128 
	C100.304207,136.377670 100.148964,131.707001 100.299774,127.045860 
	C100.483589,121.364647 98.569672,116.662674 94.558716,112.667450 
	C80.625557,98.788933 66.774483,84.827682 52.781666,71.009819 
	C51.358398,69.604355 49.190063,68.953392 45.694336,67.033295 
	C45.694336,74.059219 45.694336,79.326996 45.694336,84.594780 
	C45.694336,667.909973 45.694225,1251.225098 45.697189,1834.540283 
	C45.697208,1838.206665 45.562252,1841.885742 45.825035,1845.534912 
	C46.006927,1848.061035 46.765354,1850.545654 47.453911,1853.987183 
	C59.664078,1853.987183 71.281021,1854.000977 82.897903,1853.984009 
	C100.264526,1853.958618 100.297127,1853.949463 100.298935,1836.990112 
	C100.310242,1730.993408 100.305786,1624.996704 100.306297,1517.000000 
M202.314865,588.999939 
	C202.314728,1003.210266 202.314377,1417.420532 202.317123,1831.630859 
	C202.317154,1836.295898 202.192581,1840.969971 202.444168,1845.622559 
	C202.580383,1848.141357 203.390045,1850.623779 203.990036,1853.587524 
	C221.847061,1853.985718 238.977936,1854.763428 257.218292,1853.047729 
	C257.387604,1846.329834 257.666687,1840.421753 257.666901,1834.513794 
	C257.686981,1326.997925 257.684143,819.481995 257.697174,311.966064 
	C257.697418,303.304810 257.704620,294.637451 258.019470,285.984283 
	C258.252258,279.586456 256.333405,274.274261 251.784149,269.761719 
	C239.016098,257.096741 226.376450,244.301804 213.549484,231.697235 
	C211.121521,229.311356 208.064819,227.565308 205.138596,225.406250 
	C203.925125,227.466248 202.988968,228.313980 202.987061,229.163803 
	C202.718811,348.442413 202.518509,467.721130 202.314865,588.999939 
M1052.322021,681.000061 
	C1052.317383,556.346741 1052.337524,431.693420 1052.281860,307.040100 
	C1052.273315,288.018250 1052.111084,288.005219 1033.613159,288.005005 
	C799.970337,288.002045 566.327515,288.002991 332.684723,288.004852 
	C330.018402,288.004883 327.290649,287.684692 324.703583,288.144379 
	C322.273132,288.576172 319.991272,289.844238 317.644012,290.744354 
	C318.643585,293.030853 319.106842,295.834381 320.730804,297.518982 
	C330.444611,307.595642 340.564606,317.280579 350.286926,327.349335 
	C367.666565,345.348267 367.362122,345.132782 393.035187,345.128052 
	C586.682068,345.092163 780.328918,345.107300 973.975830,345.117279 
	C978.640564,345.117523 983.306213,345.208160 987.969849,345.319427 
	C993.166138,345.443359 996.013733,348.067291 996.139832,353.344360 
	C996.251282,358.008026 996.313904,362.674072 996.314026,367.339050 
	C996.322021,639.311218 996.320862,911.283447 996.324280,1183.255615 
	C996.324341,1187.588257 996.193237,1191.930786 996.433777,1196.251465 
	C996.809875,1203.007568 998.074036,1204.672974 1004.754639,1204.844727 
	C1017.742737,1205.178833 1030.745605,1204.938232 1043.742310,1204.937744 
	C1049.084717,1204.937500 1051.670410,1202.082153 1051.886841,1196.928589 
	C1052.096436,1191.938110 1052.302856,1186.942505 1052.303467,1181.949097 
	C1052.325073,1015.632751 1052.321899,849.316467 1052.322021,681.000061 
M2403.500732,1847.992065 
	C2403.769531,1843.003296 2404.255859,1838.015503 2404.275391,1833.025757 
	C2404.770020,1708.060059 2405.631104,1583.093872 2405.573975,1458.128296 
	C2405.484863,1263.831909 2404.657959,1069.535889 2404.342529,875.239441 
	C2403.999756,663.923096 2403.884277,452.606293 2403.666992,241.289688 
	C2403.664307,238.623322 2403.832031,235.934067 2403.538818,233.297913 
	C2403.303955,231.185486 2402.489258,229.137527 2401.530518,225.565765 
	C2397.826660,228.846695 2395.057373,231.085678 2392.533691,233.573761 
	C2383.754395,242.229553 2375.644531,251.677139 2366.190674,259.508240 
	C2353.484619,270.032928 2349.042969,283.568359 2348.410156,299.128815 
	C2348.247803,303.122681 2348.318359,307.127472 2348.334473,311.127014 
	C2348.781006,422.093536 2349.579834,533.059875 2349.624268,644.026489 
	C2349.783447,1039.676270 2349.686035,1435.325928 2349.688477,1830.975708 
	C2349.688477,1835.642090 2349.588379,1840.314087 2349.788086,1844.972656 
	C2349.898193,1847.535034 2350.536621,1850.074829 2351.096680,1853.642334 
	C2367.436523,1853.642334 2383.329102,1853.736450 2399.216064,1853.474243 
	C2400.572510,1853.452026 2401.889893,1851.057983 2403.500732,1847.992065 
M176.318130,1271.000000 
	C176.318024,922.420166 176.316818,573.840332 176.328064,225.260513 
	C176.328232,219.930939 175.853561,214.497208 176.715286,209.296814 
	C177.931717,201.955795 175.547287,196.114944 170.834213,191.050507 
	C159.942841,179.347137 148.922089,167.761002 137.779129,156.297104 
	C134.898392,153.333374 131.372208,150.997025 127.785805,148.082611 
	C126.399384,150.269760 125.113739,151.350662 125.113144,152.432297 
	C124.802032,716.269226 124.576195,1280.106201 124.396690,1843.943115 
	C124.395767,1846.834229 125.064903,1849.725708 125.512642,1853.359741 
	C142.328262,1854.301514 158.427643,1854.455688 174.317581,1853.301147 
	C175.065735,1851.613403 175.805603,1850.723267 175.806549,1849.832275 
	C176.011246,1657.554810 176.164032,1465.277466 176.318130,1271.000000 
M2430.326172,580.999939 
	C2430.325928,997.915466 2430.325684,1414.830933 2430.329590,1831.746460 
	C2430.329590,1836.411865 2430.185059,1841.089111 2430.462891,1845.739746 
	C2430.874023,1852.620972 2431.927979,1853.758911 2438.959229,1853.889282 
	C2450.619385,1854.105713 2462.286865,1854.001831 2473.950195,1853.908203 
	C2476.188721,1853.890259 2478.422607,1853.297974 2481.889893,1852.790405 
	C2482.037598,1846.237915 2482.300293,1840.015991 2482.300537,1833.794067 
	C2482.319336,1278.572998 2482.317871,723.351868 2482.312744,168.130768 
	C2482.312500,163.798950 2482.445557,159.450867 2482.108887,155.142242 
	C2481.944580,153.041199 2480.838135,151.013809 2479.718994,147.622055 
	C2476.611328,150.337219 2474.294189,152.072662 2472.319092,154.135254 
	C2462.418945,164.473907 2453.123779,175.459015 2442.609863,185.122421 
	C2433.511230,193.484879 2430.083496,202.747269 2430.118652,215.074051 
	C2430.463135,336.381866 2430.326416,457.691071 2430.326172,580.999939 
M279.693695,1361.000000 
	C279.847351,1523.948975 279.999084,1686.897827 280.203644,1849.846680 
	C280.204742,1850.736816 280.947662,1851.625977 281.843903,1853.636475 
	C298.567322,1853.898682 315.638458,1854.772217 333.813446,1853.082764 
	C333.991058,1846.417358 334.285889,1840.512939 334.286133,1834.608521 
	C334.307465,1350.401855 334.305328,866.195129 334.313293,381.988434 
	C334.313354,376.657776 333.734161,371.206970 334.638062,366.023682 
	C336.120850,357.520691 333.153687,351.145752 327.349335,345.402649 
	C315.268311,333.449036 303.299438,321.382141 291.270996,309.375244 
	C290.093628,308.199982 288.930084,306.964020 287.575409,306.021912 
	C283.415161,303.128662 280.589630,304.214447 280.032227,309.292511 
	C279.525574,313.908722 279.704803,318.608154 279.704651,323.270905 
	C279.693085,668.513916 279.693787,1013.756958 279.693695,1361.000000 
M2326.317627,539.000061 
	C2326.148682,461.348083 2325.981934,383.696075 2325.759521,306.044220 
	C2325.758301,305.563873 2324.982666,305.085754 2323.667236,303.563171 
	C2321.065186,305.779022 2318.275635,307.867615 2315.820557,310.294769 
	C2304.916748,321.074646 2294.415283,332.282867 2283.162842,342.680969 
	C2275.178467,350.059174 2272.180176,358.431976 2272.183838,369.237335 
	C2272.351807,858.561584 2272.328369,1347.885864 2272.336426,1837.210205 
	C2272.336426,1840.208618 2272.215332,1843.235474 2272.568359,1846.199341 
	C2273.305420,1852.381104 2274.556152,1853.775635 2280.765869,1853.861328 
	C2294.093506,1854.045654 2307.427246,1853.892944 2320.756836,1853.730347 
	C2322.274414,1853.711792 2323.780518,1852.750732 2326.317627,1851.871094 
	C2326.317627,1414.885864 2326.317627,977.942993 2326.317627,539.000061 
M2169.685059,1535.000000 
	C2169.685303,1184.084351 2169.685547,833.168701 2169.680420,482.253021 
	C2169.680420,477.588013 2169.820312,472.907013 2169.470703,468.265472 
	C2169.317627,466.235199 2168.094727,464.285583 2166.935791,461.163544 
	C2163.707031,463.673676 2161.250244,465.241302 2159.204834,467.231628 
	C2148.943604,477.216400 2139.313232,487.924713 2128.453125,497.198242 
	C2117.309082,506.714172 2114.038086,517.815613 2114.048828,532.258301 
	C2114.375488,965.820496 2114.314209,1399.383057 2114.316162,1832.945435 
	C2114.316406,1836.944336 2114.204834,1840.950562 2114.411377,1844.939575 
	C2114.544678,1847.512207 2115.165039,1850.059570 2115.673828,1853.295654 
	C2119.388428,1853.551514 2122.632324,1853.936646 2125.879639,1853.967773 
	C2135.209961,1854.056763 2144.541748,1854.014282 2153.872803,1854.002319 
	C2169.638672,1853.982300 2169.675537,1853.975464 2169.677490,1837.927612 
	C2169.689941,1737.618408 2169.684570,1637.309204 2169.685059,1535.000000 
M2194.326172,888.999939 
	C2194.325928,1202.983643 2194.325195,1516.967285 2194.333008,1830.950928 
	C2194.333008,1835.616089 2194.156494,1840.306641 2194.565918,1844.940674 
	C2195.210938,1852.240723 2196.723145,1853.778076 2203.740723,1853.898071 
	C2215.402832,1854.097534 2227.072021,1854.011841 2238.735840,1853.861572 
	C2240.920654,1853.833618 2243.094238,1852.941284 2246.317871,1852.211182 
	C2246.317871,1845.569946 2246.317871,1839.286621 2246.317871,1833.003296 
	C2246.317871,1356.694458 2246.318115,880.385742 2246.314697,404.076935 
	C2246.314697,399.744110 2246.433105,395.400970 2246.167725,391.082855 
	C2246.036865,388.957336 2245.153809,386.878052 2244.135498,382.937195 
	C2240.040039,386.974274 2237.006592,389.804535 2234.154053,392.806732 
	C2225.906982,401.486420 2218.372803,410.977631 2209.354980,418.754395 
	C2199.783691,427.008514 2194.914795,436.740570 2194.431152,449.024200 
	C2194.260742,453.351379 2194.329590,457.688965 2194.329346,462.021790 
	C2194.325439,603.681152 2194.326172,745.340515 2194.326172,888.999939 
M408.554413,429.181061 
	C395.916321,415.528809 381.012604,403.985657 370.641602,388.201721 
	C369.045044,385.771881 366.501740,383.679199 362.698334,385.703247 
	C362.419159,387.143066 361.882446,388.745911 361.829346,390.364594 
	C361.283325,406.997253 360.394104,423.632324 360.388885,440.266968 
	C360.301025,720.217834 360.161133,1000.168884 360.383850,1280.119629 
	C360.532318,1466.725098 361.227539,1653.329956 361.723297,1839.935059 
	C361.734497,1844.147705 362.288055,1848.358887 362.638702,1853.272339 
	C379.278595,1854.279297 395.016815,1854.597168 411.826752,1853.075684 
	C412.004181,1846.373779 412.297272,1840.465698 412.297516,1834.557495 
	C412.318726,1373.305054 412.317047,912.052612 412.314972,450.800201 
	C412.314972,447.134277 412.635406,443.422394 412.163300,439.816162 
	C411.745758,436.626678 410.429840,433.554779 408.554413,429.181061 
M492.318146,1595.000000 
	C492.317993,1240.436035 492.317902,885.872009 492.316132,531.307983 
	C492.316132,526.975952 492.162079,522.639099 492.318787,518.313171 
	C492.485352,513.716003 491.070923,510.044678 487.743164,506.699493 
	C475.766815,494.660370 464.092255,482.320770 452.103333,470.294464 
	C448.937469,467.118713 445.051788,464.660614 439.497528,460.305420 
	C438.997284,467.413025 438.368927,472.175964 438.368469,476.938965 
	C438.323822,930.474548 438.326660,1384.010132 438.332489,1837.545776 
	C438.332520,1840.544067 438.426819,1843.542358 438.458191,1846.540771 
	C438.509094,1851.410278 440.866852,1853.940186 445.827911,1853.909668 
	C459.819061,1853.823364 473.810791,1853.789551 487.800629,1853.607300 
	C488.977966,1853.592041 490.142822,1852.620361 492.318390,1851.640259 
	C492.318390,1766.858521 492.318390,1681.929321 492.318146,1595.000000 
M629.000000,366.010559 
	C556.353088,366.011047 483.706146,365.992889 411.059296,366.057617 
	C406.604126,366.061584 402.149536,366.720795 395.361420,367.260742 
	C398.965027,371.976776 400.801636,374.994598 403.218994,377.437775 
	C413.764160,388.095367 424.948212,398.161255 434.983459,409.270233 
	C443.171967,418.334778 452.168671,422.248505 464.629456,422.218170 
	C609.588867,421.865265 754.549377,421.992188 899.509644,421.996582 
	C903.174927,421.996674 906.853333,421.862518 910.502625,422.118286 
	C916.658569,422.549774 918.774963,424.434235 919.401306,430.638245 
	C919.868103,435.261780 919.679443,439.957642 919.679626,444.621277 
	C919.689575,690.887024 919.688171,937.152832 919.692932,1183.418579 
	C919.692993,1187.750366 919.810608,1192.082642 919.774170,1196.413818 
	C919.730164,1201.648682 922.084900,1204.659546 927.473450,1204.677612 
	C940.132568,1204.719971 952.792297,1204.698242 965.451111,1204.612549 
	C969.880371,1204.582520 971.996155,1202.197266 972.184387,1197.730225 
	C972.576416,1188.424805 973.557190,1179.129150 973.597717,1169.826538 
	C973.926880,1094.188843 974.300171,1018.550293 974.267334,942.912170 
	C974.204956,798.958313 973.973206,655.004395 973.614197,511.050995 
	C973.502869,466.424530 972.777344,421.799347 972.246033,377.174622 
	C972.204590,373.697327 971.473633,370.228241 970.975098,366.010559 
	C856.873535,366.010559 743.936768,366.010559 629.000000,366.010559 
M570.317627,1777.000000 
	C570.317444,1388.475708 570.317383,999.951477 570.316650,611.427246 
	C570.316650,607.095520 570.054077,602.745728 570.360840,598.436218 
	C570.847229,591.602295 568.445251,586.281189 563.553040,581.520081 
	C551.375854,569.668945 539.531433,557.476257 527.403259,545.573853 
	C524.685669,542.906921 521.352844,540.867004 518.002869,538.309021 
	C516.570374,540.315979 515.181885,541.352661 515.181091,542.390442 
	C514.834656,974.871887 514.580078,1407.353394 514.367126,1839.834839 
	C514.365051,1844.057129 514.933899,1848.279663 515.333313,1853.858765 
	C533.841248,1853.743408 551.522156,1854.771851 570.317932,1853.134644 
	C570.317932,1827.561768 570.317932,1803.280884 570.317627,1777.000000 
M2092.302979,553.366699 
	C2091.898193,548.953674 2091.493652,544.540710 2090.874023,537.782227 
	C2086.129639,541.341125 2083.093750,543.144897 2080.638428,545.543335 
	C2070.625977,555.324951 2060.730957,565.229309 2050.904541,575.198792 
	C2036.019287,590.300842 2037.720581,585.375488 2037.718872,607.348999 
	C2037.685303,1015.975098 2037.694092,1424.601196 2037.696777,1833.227295 
	C2037.696777,1837.226685 2037.576172,1841.235596 2037.811646,1845.222168 
	C2037.961792,1847.765503 2038.665039,1850.276001 2039.267578,1853.618530 
	C2056.922363,1853.934448 2073.999268,1854.828979 2092.305176,1852.903809 
	C2092.305176,1419.726929 2092.305176,987.503296 2092.302979,553.366699 
M1958.325806,1812.999390 
	C1958.667847,1826.197021 1957.559814,1839.465332 1959.167480,1853.375610 
	C1976.357056,1854.255005 1992.457153,1854.500366 2009.755371,1853.177124 
	C2009.957764,1846.930298 2010.294434,1841.377075 2010.294800,1835.823975 
	C2010.319458,1435.626831 2010.317505,1035.429810 2010.315796,635.232727 
	C2010.315796,632.233826 2010.474243,629.218689 2010.211792,626.241638 
	C2010.029541,624.173462 2009.251343,622.157898 2008.484253,619.102295 
	C2006.096802,621.244812 2004.571533,622.460266 2003.223511,623.847778 
	C1993.250000,634.112732 1983.881714,645.054321 1973.205688,654.523071 
	C1962.119629,664.355347 1958.018555,675.401306 1958.033569,690.381287 
	C1958.406128,1063.920410 1958.325928,1437.459961 1958.325806,1812.999390 
M595.686401,1183.000000 
	C595.901001,1246.971680 596.251038,1310.943115 596.301331,1374.914917 
	C596.399475,1499.874390 596.240051,1624.834106 596.393311,1749.793335 
	C596.431702,1781.088379 597.221863,1812.382690 597.760559,1843.675781 
	C597.815002,1846.842285 598.521667,1849.997559 598.931396,1853.202393 
	C615.570679,1853.202393 631.066284,1853.202393 647.797913,1853.202393 
	C647.983093,1846.594238 648.292114,1840.707153 648.292480,1834.820068 
	C648.315308,1452.610596 648.313049,1070.401001 648.311951,688.191528 
	C648.311951,685.192505 648.134705,682.183228 648.323303,679.196594 
	C648.753845,672.375244 646.009338,667.136047 641.349121,662.265076 
	C630.305725,650.722351 619.693542,638.767578 608.703796,627.172119 
	C606.180298,624.509521 602.837524,622.623352 598.241821,619.146912 
	C597.475952,628.397827 596.421875,635.296570 596.404968,642.197876 
	C596.091797,770.148438 595.877991,898.099304 595.698669,1026.050171 
	C595.626221,1077.699951 595.686340,1129.350098 595.686401,1183.000000 
M894.321045,1089.000000 
	C894.320374,879.681335 894.322510,670.362732 894.313843,461.044098 
	C894.313171,444.027985 894.279053,444.008118 877.149170,444.007324 
	C747.824890,444.001495 618.500610,444.003723 489.176300,444.006622 
	C486.510010,444.006683 483.815399,443.814514 481.186493,444.138214 
	C479.120331,444.392578 477.135223,445.305695 474.242767,446.193695 
	C476.154510,448.985077 477.179779,451.069244 478.724274,452.644165 
	C490.856537,465.015228 503.256927,477.127716 515.219788,489.658722 
	C521.439636,496.173950 528.855408,498.865204 537.533142,499.013153 
	C540.865540,499.069946 544.198730,499.101807 547.531555,499.101990 
	C627.859253,499.106812 708.187012,499.126526 788.514709,499.065765 
	C794.831177,499.060974 801.149658,498.201630 807.463074,498.252228 
	C815.433105,498.316132 823.407288,498.782532 831.363159,499.320190 
	C835.663208,499.610809 837.911499,502.337189 838.082458,506.597748 
	C838.256104,510.924805 838.312683,515.259155 838.312866,519.590271 
	C838.323364,741.241394 838.321472,962.892578 838.329285,1184.543701 
	C838.329407,1188.875732 838.371826,1193.209473 838.498718,1197.539307 
	C838.624695,1201.838745 840.821533,1204.670288 845.187744,1204.710327 
	C859.508118,1204.842163 873.832214,1204.803955 888.151917,1204.611084 
	C892.119690,1204.557739 894.010315,1201.862305 894.140259,1197.988892 
	C894.240784,1194.991699 894.309998,1191.991821 894.311157,1188.993164 
	C894.323792,1156.328735 894.320435,1123.664429 894.321045,1089.000000 
M763.055481,1201.672852 
	C764.434204,1202.535889 765.799011,1204.123169 767.193726,1204.149780 
	C781.168335,1204.416626 795.147949,1204.493530 809.125854,1204.462524 
	C812.620239,1204.454834 814.575928,1202.100830 815.095154,1198.815308 
	C815.508728,1196.198853 815.611389,1193.514282 815.635071,1190.858032 
	C815.884216,1162.869263 816.296265,1134.880127 816.273804,1106.891235 
	C816.122437,918.594727 815.876526,730.298157 815.657654,542.001648 
	C815.655334,540.002258 815.863342,537.956970 815.519897,536.013245 
	C814.848145,532.211853 813.855774,528.467041 812.839294,524.011597 
	C807.696594,524.011597 803.408264,524.012329 799.119934,524.011475 
	C720.132202,523.994934 641.144531,523.978088 562.156799,523.962891 
	C560.494202,523.962585 558.784668,523.736389 557.178345,524.042297 
	C553.422729,524.757446 552.195618,527.356628 554.152710,530.621094 
	C555.158630,532.299072 556.685608,533.685974 558.073730,535.110168 
	C569.914917,547.258850 581.769470,559.394592 593.638977,571.515747 
	C599.222961,577.218140 605.558044,580.212524 614.018066,580.145386 
	C657.008667,579.803894 700.003540,579.990051 742.996887,579.995850 
	C745.996277,579.996277 749.004883,579.889038 751.993164,580.081116 
	C758.755859,580.515869 760.815186,582.356506 761.451965,589.125427 
	C761.856384,593.424194 761.680908,597.782104 761.681091,602.113525 
	C761.689575,795.750305 761.683472,989.387024 761.714355,1183.023804 
	C761.715271,1188.676270 762.096680,1194.328857 763.055481,1201.672852 
M684.314819,1037.000000 
	C684.314819,1086.315430 684.314209,1135.630737 684.316040,1184.946167 
	C684.316162,1187.945068 684.259094,1190.946411 684.359802,1193.942261 
	C684.666199,1203.056396 685.952271,1204.638306 694.680115,1204.976440 
	C703.306885,1205.311157 711.954529,1205.062744 720.590759,1205.205200 
	C741.939148,1205.557495 739.663391,1203.139404 739.666199,1185.681885 
	C739.696472,997.417480 739.685242,809.153137 739.682739,620.888733 
	C739.682739,617.889954 739.768250,614.884705 739.608032,611.893555 
	C739.150391,603.351379 738.072083,602.102173 729.397034,602.068298 
	C699.110168,601.950134 668.822449,601.998169 638.535278,602.069763 
	C636.418030,602.074768 634.302551,602.786987 630.328918,603.506714 
	C633.323181,607.221130 635.096863,609.865540 637.301331,612.081238 
	C648.565247,623.402832 659.408264,635.227417 671.447449,645.666382 
	C680.816284,653.789917 684.584290,662.652466 684.544189,675.132507 
	C684.159241,795.087341 684.314453,915.043945 684.314819,1037.000000 
z"/>
<path fill="#123D68" opacity="1.000000" stroke="none" 
	d="
M1376.307129,634.000122 
	C1376.306885,847.316345 1376.307251,1059.632568 1376.302612,1271.948853 
	C1376.302490,1276.281494 1376.437012,1280.625854 1376.170776,1284.943970 
	C1375.741211,1291.911987 1374.109863,1293.396973 1366.929077,1293.905029 
	C1364.937988,1294.045898 1362.931274,1293.983765 1360.931641,1293.983887 
	C1168.947144,1293.986450 976.962524,1293.940063 784.978149,1294.119385 
	C775.240784,1294.128418 767.734009,1291.301025 761.055176,1284.214111 
	C750.088623,1272.577393 738.446777,1261.579712 727.272522,1250.134155 
	C724.404236,1247.196167 722.219910,1243.590332 718.273010,1238.378906 
	C724.881653,1238.218018 729.058167,1238.027832 733.234680,1238.027466 
	C891.221985,1238.012085 1049.209229,1238.014404 1207.196533,1238.014038 
	C1238.527344,1238.014038 1269.858154,1238.014771 1301.188965,1238.012085 
	C1303.855347,1238.011841 1306.526123,1238.081665 1309.187256,1237.957275 
	C1317.490234,1237.569092 1319.192261,1235.985229 1319.603516,1227.972168 
	C1319.808350,1223.982178 1319.691040,1219.974731 1319.691040,1215.975220 
	C1319.693604,835.339233 1319.693115,454.703217 1319.697876,74.067215 
	C1319.697876,69.401344 1319.557373,64.722717 1319.846680,60.072697 
	C1320.248779,53.611256 1321.308594,52.600353 1327.574585,52.128479 
	C1330.559204,51.903721 1333.570923,52.018501 1336.570435,52.018475 
	C1728.205566,52.015030 2119.840820,52.015217 2511.475830,52.015224 
	C2515.731934,52.015224 2519.987793,52.015224 2526.344971,52.015224 
	C2524.159424,55.900646 2523.375244,58.356377 2521.761719,59.995552 
	C2508.668701,73.297272 2495.406494,86.431793 2482.227295,99.648651 
	C2477.474365,104.415001 2471.896240,106.135635 2465.100586,106.092873 
	C2428.438232,105.862167 2391.773926,105.988625 2355.110107,105.988686 
	C2036.469116,105.989197 1717.828125,105.988617 1399.187134,105.993401 
	C1394.854614,105.993469 1390.502563,105.810081 1386.193970,106.149254 
	C1378.868896,106.725906 1376.854492,108.837296 1376.414673,116.043175 
	C1376.191772,119.697220 1376.310181,123.373390 1376.310059,127.039558 
	C1376.306641,295.693054 1376.307007,464.346558 1376.307129,634.000122 
z"/>
<path fill="#123C66" opacity="1.000000" stroke="none" 
	d="
M2154.000000,129.997498 
	C2246.988281,129.998215 2338.976807,129.976807 2430.965088,130.062439 
	C2435.752930,130.066895 2441.090576,128.545471 2445.471191,133.660797 
	C2444.559326,135.445709 2443.919434,137.749954 2442.485840,139.337433 
	C2431.103027,151.942017 2419.530273,164.374893 2408.097900,176.934769 
	C2401.618652,184.052765 2393.616455,187.296814 2384.064941,187.103073 
	C2379.068115,187.001694 2374.066650,187.117569 2369.067383,187.117599 
	C2072.104980,187.119324 1775.142456,187.117981 1478.180054,187.129517 
	C1473.182983,187.129715 1468.183350,187.207809 1463.189697,187.387939 
	C1458.421875,187.559937 1455.842407,190.003876 1455.830444,194.931305 
	C1455.819092,199.596451 1455.692139,204.261414 1455.692017,208.926468 
	C1455.684937,593.877747 1455.685913,978.828979 1455.680664,1363.780273 
	C1455.680664,1368.445801 1455.572144,1373.111328 1455.577881,1377.776855 
	C1455.583374,1382.215088 1453.461792,1384.621948 1449.000488,1384.828857 
	C1446.005737,1384.967896 1443.007080,1385.100830 1440.010132,1385.100952 
	C1251.700562,1385.113037 1063.390991,1385.045776 875.081787,1385.268921 
	C863.494934,1385.282593 854.730591,1381.873901 847.038757,1373.133667 
	C838.481873,1363.410645 828.702454,1354.771118 819.604919,1345.512817 
	C815.723511,1341.562866 812.221619,1337.239990 807.465149,1331.863281 
	C811.437195,1330.970947 813.504517,1330.228149 815.610474,1330.094971 
	C819.262756,1329.863892 822.938904,1329.999268 826.605042,1329.999268 
	C1010.248474,1329.997437 1193.891846,1330.001099 1377.535278,1329.976196 
	C1382.192017,1329.975586 1386.902466,1330.047607 1391.493042,1329.406372 
	C1398.728882,1328.395630 1399.844482,1326.967285 1400.213501,1319.760620 
	C1400.417725,1315.770752 1400.311523,1311.763794 1400.311523,1307.764526 
	C1400.314575,923.146545 1400.314209,538.528503 1400.317871,153.910507 
	C1400.317871,149.244675 1400.171265,144.567535 1400.439209,139.915588 
	C1400.868042,132.463577 1402.825928,130.507507 1410.100586,130.093323 
	C1414.088257,129.866302 1418.097168,130.000046 1422.096558,130.000000 
	C1665.731079,129.997269 1909.365479,129.997528 2154.000000,129.997498 
z"/>
<path fill="#123D68" opacity="1.000000" stroke="none" 
	d="
M1534.307129,1264.000000 
	C1534.305908,1325.331177 1534.317017,1385.662231 1534.294434,1445.993408 
	C1534.288818,1460.896851 1533.506836,1461.642700 1518.536621,1461.966431 
	C1516.537598,1462.009766 1514.536987,1461.987671 1512.537109,1461.987671 
	C1327.210571,1461.988525 1141.884033,1461.989014 956.557495,1461.983643 
	C953.224854,1461.983521 949.877747,1462.094482 946.562683,1461.833252 
	C939.722595,1461.294067 933.501160,1459.005737 928.589294,1454.071289 
	C916.599487,1442.026123 904.679321,1429.910522 892.829407,1417.727783 
	C890.649292,1415.486206 888.932312,1412.794434 885.698364,1408.633911 
	C891.288818,1407.977661 894.748352,1407.267578 898.216858,1407.220337 
	C909.547729,1407.065552 920.881958,1407.146973 932.214844,1407.146851 
	C1106.875122,1407.145386 1281.535278,1407.156738 1456.195557,1407.131348 
	C1477.828979,1407.128174 1477.717529,1408.943970 1477.715698,1386.055176 
	C1477.684326,1001.069336 1477.692993,616.083435 1477.696777,231.097565 
	C1477.696899,226.431381 1477.574707,221.756119 1477.817627,217.101181 
	C1478.161865,210.507751 1479.540649,209.021790 1486.114868,208.254837 
	C1489.408936,207.870575 1492.771973,208.023239 1496.103760,208.023148 
	C1782.759888,208.014877 2069.416016,208.015457 2356.072266,208.015396 
	C2359.986572,208.015396 2363.901123,208.015396 2370.240723,208.015396 
	C2367.150391,212.777359 2365.714844,216.022430 2363.390869,218.398880 
	C2350.807617,231.267059 2337.899170,243.817703 2325.326660,256.696350 
	C2320.065186,262.085968 2314.139648,264.133118 2306.581787,264.107025 
	C2244.251465,263.891785 2181.920166,263.988556 2119.589111,263.988800 
	C1930.596069,263.989471 1741.603027,263.988129 1552.609985,263.991028 
	C1534.333984,263.991333 1534.311157,264.002441 1534.310913,282.037048 
	C1534.306152,609.024719 1534.307129,936.012329 1534.307129,1264.000000 
z"/>
<path fill="#123C67" opacity="1.000000" stroke="none" 
	d="
M1296.000000,1539.998169 
	C1207.014160,1539.997681 1119.028076,1539.874634 1031.043213,1540.170044 
	C1021.297791,1540.202759 1013.904480,1537.756958 1007.221985,1530.470947 
	C996.643982,1518.937622 985.130554,1508.266724 974.184875,1497.062988 
	C971.567993,1494.384277 969.629089,1491.043335 966.432617,1486.731079 
	C970.529175,1485.511475 972.875427,1484.404541 975.302551,1484.182739 
	C979.271057,1483.820557 983.292297,1484.009155 987.291260,1484.009155 
	C1169.261841,1484.004883 1351.232422,1484.029663 1533.203003,1483.973145 
	C1555.037720,1483.966431 1555.728394,1487.376831 1555.724365,1461.940308 
	C1555.663330,1077.002563 1555.681519,692.064697 1555.691528,307.126923 
	C1555.691650,302.463135 1555.732178,297.795135 1555.932251,293.136749 
	C1556.117554,288.819122 1558.472534,286.393616 1562.850098,286.190033 
	C1565.844360,286.050781 1568.845703,286.014099 1571.843872,286.014008 
	C1807.472534,286.006439 2043.101074,286.004700 2278.729736,286.028076 
	C2282.574951,286.028442 2286.420166,286.343079 2292.536621,286.610291 
	C2288.950439,291.428986 2286.992432,294.789917 2284.352539,297.482056 
	C2272.219238,309.855530 2259.797852,321.946930 2247.692871,334.347321 
	C2243.434570,338.709473 2238.523682,340.801941 2232.588135,340.879517 
	C2225.590332,340.970978 2218.592285,341.092468 2211.594238,341.092896 
	C2019.625244,341.104492 1827.656250,341.101898 1635.687256,341.104584 
	C1631.354736,341.104645 1627.017944,341.020538 1622.690552,341.179352 
	C1613.297974,341.524139 1612.047607,342.820862 1611.737305,352.552094 
	C1611.588623,357.213593 1611.676147,361.883026 1611.676147,366.548859 
	C1611.674438,750.153564 1611.674805,1133.758179 1611.669312,1517.362915 
	C1611.669312,1522.028198 1611.828369,1526.709961 1611.500610,1531.354980 
	C1611.037598,1537.918213 1609.419312,1539.444336 1602.945679,1539.887695 
	C1599.627075,1540.114990 1596.283081,1539.994507 1592.950562,1539.994629 
	C1494.300415,1539.998657 1395.650146,1539.998047 1296.000000,1539.998169 
z"/>
<path fill="#123C67" opacity="1.000000" stroke="none" 
	d="
M1231.676758,1126.000000 
	C1231.676880,794.057129 1231.678223,463.114319 1231.666260,132.171463 
	C1231.666138,127.175209 1231.687378,122.166817 1231.361816,117.186104 
	C1231.032593,112.149124 1228.304321,109.287628 1222.995117,109.277832 
	C1217.997070,109.268608 1212.999390,109.117943 1208.001465,109.117821 
	C856.728821,109.109619 505.456177,109.119804 154.183517,109.090424 
	C128.643616,109.088287 133.981064,110.719193 116.790764,93.769714 
	C107.060982,84.176231 97.405800,74.505539 87.827934,64.760605 
	C85.371422,62.261234 83.335442,59.348537 80.011993,55.289139 
	C84.232697,53.866829 86.812836,52.577160 89.521469,52.192623 
	C92.792061,51.728306 96.171585,52.005840 99.503960,52.005806 
	C489.103333,52.002003 878.702759,52.001740 1268.302124,52.010021 
	C1271.966553,52.010098 1275.653564,51.893700 1279.289917,52.246361 
	C1284.221191,52.724606 1287.208130,55.504520 1287.492554,60.641823 
	C1287.657959,63.634087 1287.670898,66.637444 1287.670898,69.635811 
	C1287.678101,442.571411 1287.679688,815.507019 1287.671753,1188.442627 
	C1287.671387,1204.864136 1287.467773,1205.041992 1270.813599,1205.098022 
	C1261.815308,1205.128296 1252.814453,1205.207397 1243.818970,1205.039795 
	C1232.721313,1204.833008 1231.775635,1203.927979 1231.723389,1192.988647 
	C1231.618530,1170.992920 1231.682617,1148.996216 1231.676758,1126.000000 
z"/>
<path fill="#123D67" opacity="1.000000" stroke="none" 
	d="
M1700.000000,366.009949 
	C1870.239136,366.009949 2039.478271,366.009949 2208.002441,366.009949 
	C2210.906494,370.489502 2208.780273,372.823822 2206.761719,375.043152 
	C2195.564941,387.354370 2184.196045,399.511414 2173.129883,411.938446 
	C2166.418457,419.475433 2158.395508,422.148651 2148.314209,422.134308 
	C2002.343994,421.926300 1856.373169,421.991974 1710.402588,421.999054 
	C1706.737427,421.999237 1703.072144,422.062897 1699.407349,422.124298 
	C1694.496948,422.206573 1692.112549,424.956970 1691.886719,429.632416 
	C1691.677979,433.956360 1691.676880,438.292938 1691.676758,442.623962 
	C1691.668335,827.546570 1691.669312,1212.469116 1691.662598,1597.391724 
	C1691.662476,1602.056519 1691.838501,1606.743652 1691.454102,1611.380737 
	C1690.946167,1617.508301 1688.855713,1619.379639 1682.591919,1619.870361 
	C1679.609009,1620.104126 1676.596802,1619.988892 1673.597778,1619.989014 
	C1486.302124,1619.993042 1299.006226,1619.910156 1111.710938,1620.186279 
	C1099.748779,1620.203979 1090.753418,1616.854126 1082.699829,1607.975098 
	C1071.745117,1595.897461 1059.726562,1584.787231 1048.238159,1573.188843 
	C1046.711792,1571.647827 1045.619385,1569.676880 1043.479248,1566.744873 
	C1047.879761,1566.107178 1051.028320,1565.422363 1054.205078,1565.246460 
	C1058.525146,1565.006958 1062.866699,1565.141235 1067.199097,1565.141113 
	C1248.829224,1565.138550 1430.459351,1565.139282 1612.089478,1565.135254 
	C1616.421631,1565.135132 1620.761719,1565.238037 1625.084351,1565.020142 
	C1632.763306,1564.633301 1634.371338,1563.267090 1635.340820,1555.682251 
	C1635.844971,1551.738647 1635.674316,1547.698853 1635.674927,1543.702515 
	C1635.690308,1448.055054 1635.687744,1352.407715 1635.687866,1256.760254 
	C1635.687988,967.818359 1635.687744,678.876465 1635.689209,389.934601 
	C1635.689209,385.602173 1635.615356,381.267151 1635.737549,376.937897 
	C1636.006714,367.402039 1637.143433,366.250671 1647.015259,366.061707 
	C1655.010864,365.908630 1663.011353,366.014008 1671.009766,366.010834 
	C1680.339844,366.007111 1689.669922,366.009949 1700.000000,366.009949 
z"/>
<path fill="#123C67" opacity="1.000000" stroke="none" 
	d="
M2065.758789,498.826538 
	C2050.147461,498.739441 2035.505981,498.654846 2020.864380,498.632660 
	C2016.867188,498.626617 2012.869751,498.889038 2008.872437,498.890869 
	C1965.540527,498.910675 1922.208130,499.014069 1878.876709,498.865173 
	C1848.557617,498.760956 1818.239746,498.297974 1787.921143,498.007660 
	C1785.255249,497.982147 1782.577393,497.900726 1779.924194,498.100159 
	C1771.839478,498.707916 1770.106567,500.454254 1769.760254,508.503784 
	C1769.574097,512.829590 1769.679932,517.168640 1769.679932,521.501709 
	C1769.677368,905.822693 1769.677979,1290.143677 1769.672974,1674.464722 
	C1769.672974,1679.130737 1769.543213,1683.797119 1769.583496,1688.462524 
	C1769.628784,1693.704712 1766.993530,1696.626709 1761.917236,1697.122681 
	C1756.959595,1697.606934 1751.965942,1697.963867 1746.988159,1697.964966 
	C1567.660522,1698.006592 1388.333008,1698.000488 1209.005371,1697.998779 
	C1200.672363,1697.998657 1192.339355,1697.969727 1184.006348,1697.969360 
	C1175.966064,1697.968994 1169.113892,1695.374390 1163.438843,1689.432861 
	C1151.940796,1677.394897 1140.241455,1665.549438 1128.648071,1653.602295 
	C1127.492676,1652.411743 1126.295654,1651.185425 1125.463379,1649.772217 
	C1123.262695,1646.035278 1124.381348,1643.090088 1128.650879,1642.439209 
	C1132.571899,1641.841309 1136.625610,1642.017944 1140.620850,1642.017700 
	C1324.948242,1642.001343 1509.275635,1642.003906 1693.603027,1641.996460 
	C1697.601807,1641.996338 1701.601074,1641.921143 1705.599365,1641.846680 
	C1709.611328,1641.771973 1711.813843,1639.612183 1712.020630,1635.698853 
	C1712.266602,1631.043457 1712.310791,1626.373291 1712.310913,1621.709595 
	C1712.322998,1236.721924 1712.321777,851.734375 1712.327881,466.746735 
	C1712.327881,462.080994 1712.446777,457.415283 1712.444946,452.749542 
	C1712.442993,447.831665 1714.876587,445.384705 1719.762573,445.302673 
	C1722.761475,445.252289 1725.760132,445.138397 1728.758911,445.138214 
	C1858.088135,445.129883 1987.417358,445.122467 2116.746582,445.166748 
	C2121.305420,445.168304 2125.864014,445.694733 2132.243408,446.089050 
	C2130.342285,449.604828 2129.611816,452.111389 2128.000488,453.752380 
	C2115.156006,466.831940 2102.156982,479.760101 2089.178467,492.707428 
	C2082.875732,498.994934 2074.773193,498.852905 2065.758789,498.826538 
z"/>
<path fill="#123C67" opacity="1.000000" stroke="none" 
	d="
M1153.676758,291.999939 
	C1153.676147,262.001373 1153.680420,233.002869 1153.667847,204.004349 
	C1153.666504,201.005692 1153.567871,198.006989 1153.508423,195.008423 
	C1153.412109,190.147690 1150.791382,187.635437 1146.073975,187.417358 
	C1141.083252,187.186676 1136.081177,187.122208 1131.083984,187.121979 
	C833.432495,187.109055 535.781006,187.094345 238.129486,187.136795 
	C210.694901,187.140717 213.083420,187.040222 195.354507,169.403091 
	C186.848541,160.941177 178.244949,152.576263 169.817841,144.036865 
	C166.855804,141.035370 164.288498,137.644333 160.581802,133.309494 
	C164.113525,131.910416 166.315292,130.529617 168.655807,130.228851 
	C172.266937,129.764832 175.973068,130.006882 179.638901,130.006821 
	C516.621704,130.001694 853.604553,130.001938 1190.587402,130.003510 
	C1193.587158,130.003525 1196.591797,129.922501 1199.585938,130.058548 
	C1207.628662,130.423950 1209.178833,132.045135 1209.620239,140.369476 
	C1209.708374,142.032074 1209.674194,143.701874 1209.674194,145.368347 
	C1209.675659,493.683929 1209.678589,841.999512 1209.663086,1190.315063 
	C1209.662354,1204.563232 1209.208130,1204.985352 1195.127808,1205.083252 
	C1185.462280,1205.150391 1175.793335,1205.213013 1166.130249,1205.033325 
	C1155.314209,1204.832153 1153.956543,1203.418457 1153.715820,1192.953247 
	C1153.616211,1188.622192 1153.678223,1184.287476 1153.678223,1179.954346 
	C1153.677002,884.302856 1153.677002,588.651428 1153.676758,291.999939 
z"/>
<path fill="#123D68" opacity="1.000000" stroke="none" 
	d="
M1846.307129,1354.000000 
	C1846.306885,1488.306641 1846.307495,1621.613403 1846.301758,1754.920044 
	C1846.301514,1758.918701 1846.432617,1762.931519 1846.150146,1766.912720 
	C1845.700562,1773.248901 1843.876465,1775.141113 1837.668091,1775.805420 
	C1834.698608,1776.123047 1831.675903,1775.982056 1828.677246,1775.982178 
	C1642.381226,1775.988525 1456.084961,1775.913696 1269.789307,1776.161621 
	C1257.847412,1776.177490 1248.721924,1772.714844 1240.684448,1763.900513 
	C1230.590332,1752.830566 1219.527100,1742.649292 1209.045166,1731.924927 
	C1206.380615,1729.198853 1204.334106,1725.868896 1201.147583,1721.695190 
	C1205.071899,1720.615234 1207.462769,1719.550293 1209.918945,1719.368896 
	C1214.562012,1719.026367 1219.242676,1719.151855 1223.907715,1719.151611 
	C1405.538086,1719.144775 1587.168457,1719.147217 1768.798828,1719.136841 
	C1773.463135,1719.136597 1778.149658,1719.269165 1782.786255,1718.874634 
	C1789.229980,1718.326172 1790.955322,1716.572266 1791.503052,1710.226929 
	C1791.846191,1706.254272 1791.687622,1702.234985 1791.687622,1698.236572 
	C1791.693726,1313.313477 1791.692993,928.390442 1791.696411,543.467407 
	C1791.696411,538.801941 1791.563965,534.127075 1791.807495,529.473083 
	C1792.188721,522.187073 1793.679688,520.704712 1800.664185,520.117188 
	C1802.651611,519.950012 1804.660889,520.021118 1806.660156,520.021057 
	C1884.644531,520.017151 1962.629028,520.016602 2040.613403,520.021790 
	C2042.945801,520.021912 2045.298706,519.902588 2047.606567,520.159180 
	C2053.899170,520.858887 2055.487793,524.380188 2051.654053,529.664917 
	C2049.520508,532.605652 2046.780518,535.124146 2044.200073,537.719727 
	C2034.566528,547.409668 2024.713867,556.888611 2015.282715,566.770569 
	C2008.880005,573.479309 2001.263550,576.829529 1992.169189,576.765686 
	C1983.183472,576.702576 1974.200928,576.055115 1965.215942,576.029236 
	C1932.222778,575.934326 1899.229248,575.991089 1866.235840,575.991211 
	C1865.236084,575.991211 1864.236084,575.985168 1863.236450,575.999573 
	C1847.407104,576.227661 1846.316162,577.288879 1846.315552,593.153015 
	C1846.305420,846.435364 1846.307617,1099.717651 1846.307129,1354.000000 
z"/>
<path fill="#123C67" opacity="1.000000" stroke="none" 
	d="
M1870.322754,1666.000000 
	C1870.322754,1318.731934 1870.322510,972.463806 1870.322754,626.195740 
	C1870.322754,622.529785 1870.291504,618.863281 1870.341675,615.197998 
	C1870.495239,603.980286 1871.666382,602.359070 1882.903076,602.158752 
	C1903.201294,601.796692 1923.509277,601.957520 1943.813110,601.926453 
	C1950.811523,601.915771 1957.813599,601.858826 1964.806519,602.071960 
	C1967.951660,602.167786 1971.078247,602.874817 1975.946655,603.542114 
	C1973.537842,607.089661 1972.381836,609.335327 1970.735229,611.131348 
	C1957.914673,625.115417 1945.070312,639.079285 1932.060425,652.886597 
	C1929.114014,656.013428 1927.569824,659.304382 1927.692749,663.575134 
	C1927.827026,668.236511 1927.679688,672.905518 1927.679688,677.571228 
	C1927.677246,1061.832153 1927.678345,1446.093140 1927.668457,1830.354004 
	C1927.668335,1835.351318 1927.861694,1840.380493 1927.378174,1845.337769 
	C1926.772095,1851.550903 1924.630493,1853.406860 1918.486572,1853.879150 
	C1915.503052,1854.108643 1912.491089,1853.995850 1909.492065,1853.995850 
	C1721.194214,1853.999878 1532.896240,1853.902832 1344.598877,1854.230347 
	C1332.852783,1854.250854 1324.081787,1850.699341 1316.350342,1842.406860 
	C1306.361572,1831.693359 1295.959961,1821.365723 1285.862915,1810.751221 
	C1283.659424,1808.434814 1281.992554,1805.608154 1279.324341,1801.995239 
	C1282.771606,1801.106934 1284.835083,1800.254272 1286.948853,1800.102173 
	C1290.596558,1799.839722 1294.275757,1800.004272 1297.941650,1800.004272 
	C1482.573486,1800.002808 1667.205444,1800.004150 1851.837280,1800.000366 
	C1870.289551,1800.000000 1870.310059,1799.986084 1870.316895,1781.976440 
	C1870.331299,1743.651001 1870.322144,1705.325439 1870.322754,1666.000000 
z"/>
<path fill="#123D68" opacity="1.000000" stroke="none" 
	d="
M750.000000,263.988983 
	C602.336792,263.988922 455.673126,263.838501 309.011047,264.241150 
	C295.600220,264.277985 285.405518,261.023651 276.531372,250.790787 
	C267.382233,240.240814 256.871979,230.874893 247.024933,220.923935 
	C244.504974,218.377365 242.240601,215.577835 238.826599,211.731598 
	C242.167664,210.189987 244.268173,208.713852 246.563202,208.289383 
	C249.472198,207.751358 252.539230,208.022354 255.538116,208.022278 
	C541.864746,208.015182 828.191345,208.015503 1114.517944,208.015366 
	C1118.805908,208.015366 1123.093872,208.015381 1128.065308,208.015381 
	C1128.905273,211.694839 1129.846924,214.488174 1130.118652,217.345230 
	C1130.464844,220.981918 1130.301514,224.670197 1130.301636,228.336243 
	C1130.306641,546.995422 1130.306641,865.654663 1130.300049,1184.313843 
	C1130.299927,1188.312866 1130.257446,1192.313354 1130.146729,1196.310669 
	C1130.004028,1201.468384 1127.358765,1204.550171 1122.152100,1204.598877 
	C1108.492065,1204.726685 1094.828857,1204.708252 1081.168945,1204.555054 
	C1076.385742,1204.501343 1073.918213,1201.692993 1073.855347,1196.875366 
	C1073.794556,1192.210083 1073.700317,1187.544434 1073.700195,1182.879028 
	C1073.692749,884.219360 1073.693726,585.559692 1073.690308,286.900055 
	C1073.690186,282.567047 1073.828003,278.223419 1073.578979,273.903351 
	C1073.141968,266.320526 1071.324585,264.502319 1063.989624,264.071899 
	C1060.666870,263.876953 1057.325073,263.991516 1053.991943,263.991425 
	C952.994629,263.988647 851.997314,263.989075 750.000000,263.988983 
z"/>
<path fill="#123C67" opacity="1.000000" stroke="none" 
	d="
M2561.673828,896.000122 
	C2561.526123,1214.576904 2561.379395,1532.153687 2561.180176,1849.730469 
	C2561.179688,1850.627075 2560.412354,1851.523193 2559.511963,1853.495117 
	C2554.401123,1853.653564 2548.849854,1853.935913 2543.296631,1853.973145 
	C2533.966797,1854.035767 2524.635010,1853.864502 2515.305420,1853.946777 
	C2510.318115,1853.990723 2507.906250,1851.674316 2507.841064,1846.761719 
	C2507.788330,1842.763916 2507.689453,1838.765991 2507.689453,1834.768188 
	C2507.682129,1276.246216 2507.687744,717.724182 2507.635498,159.202179 
	C2507.634766,149.902267 2506.831543,140.605057 2506.585693,131.301743 
	C2506.374023,123.292999 2508.855713,116.163620 2514.639893,110.481857 
	C2527.707764,97.644676 2540.852539,84.885468 2554.023438,72.153503 
	C2555.388916,70.833458 2557.137695,69.909958 2559.606934,68.169128 
	C2560.441650,71.113029 2561.392822,73.139175 2561.527100,75.218086 
	C2561.805664,79.533524 2561.671631,83.877007 2561.671631,88.208984 
	C2561.674561,357.139343 2561.674072,626.069702 2561.673828,896.000122 
z"/>
<path fill="#123D68" opacity="1.000000" stroke="none" 
	d="
M100.306419,1518.000000 
	C100.305786,1624.996704 100.310242,1730.993408 100.298935,1836.990112 
	C100.297127,1853.949463 100.264526,1853.958618 82.897903,1853.984009 
	C71.281021,1854.000977 59.664078,1853.987183 47.453911,1853.987183 
	C46.765354,1850.545654 46.006927,1848.061035 45.825035,1845.534912 
	C45.562252,1841.885742 45.697208,1838.206665 45.697189,1834.540283 
	C45.694225,1251.225098 45.694336,667.909973 45.694336,84.594780 
	C45.694336,79.326996 45.694336,74.059219 45.694336,67.033295 
	C49.190063,68.953392 51.358398,69.604355 52.781666,71.009819 
	C66.774483,84.827682 80.625557,98.788933 94.558716,112.667450 
	C98.569672,116.662674 100.483589,121.364647 100.299774,127.045860 
	C100.148964,131.707001 100.304207,136.377670 100.304222,141.044128 
	C100.306122,599.696106 100.306152,1058.348022 100.306419,1518.000000 
z"/>
<path fill="#123C66" opacity="1.000000" stroke="none" 
	d="
M202.315002,587.999878 
	C202.518509,467.721130 202.718811,348.442413 202.987061,229.163803 
	C202.988968,228.313980 203.925125,227.466248 205.138596,225.406250 
	C208.064819,227.565308 211.121521,229.311356 213.549484,231.697235 
	C226.376450,244.301804 239.016098,257.096741 251.784149,269.761719 
	C256.333405,274.274261 258.252258,279.586456 258.019470,285.984283 
	C257.704620,294.637451 257.697418,303.304810 257.697174,311.966064 
	C257.684143,819.481995 257.686981,1326.997925 257.666901,1834.513794 
	C257.666687,1840.421753 257.387604,1846.329834 257.218292,1853.047729 
	C238.977936,1854.763428 221.847061,1853.985718 203.990036,1853.587524 
	C203.390045,1850.623779 202.580383,1848.141357 202.444168,1845.622559 
	C202.192581,1840.969971 202.317154,1836.295898 202.317123,1831.630859 
	C202.314377,1417.420532 202.314728,1003.210266 202.315002,587.999878 
z"/>
<path fill="#123C67" opacity="1.000000" stroke="none" 
	d="
M1052.322144,682.000122 
	C1052.321899,849.316467 1052.325073,1015.632751 1052.303467,1181.949097 
	C1052.302856,1186.942505 1052.096436,1191.938110 1051.886841,1196.928589 
	C1051.670410,1202.082153 1049.084717,1204.937500 1043.742310,1204.937744 
	C1030.745605,1204.938232 1017.742737,1205.178833 1004.754639,1204.844727 
	C998.074036,1204.672974 996.809875,1203.007568 996.433777,1196.251465 
	C996.193237,1191.930786 996.324341,1187.588257 996.324280,1183.255615 
	C996.320862,911.283447 996.322021,639.311218 996.314026,367.339050 
	C996.313904,362.674072 996.251282,358.008026 996.139832,353.344360 
	C996.013733,348.067291 993.166138,345.443359 987.969849,345.319427 
	C983.306213,345.208160 978.640564,345.117523 973.975830,345.117279 
	C780.328918,345.107300 586.682068,345.092163 393.035187,345.128052 
	C367.362122,345.132782 367.666565,345.348267 350.286926,327.349335 
	C340.564606,317.280579 330.444611,307.595642 320.730804,297.518982 
	C319.106842,295.834381 318.643585,293.030853 317.644012,290.744354 
	C319.991272,289.844238 322.273132,288.576172 324.703583,288.144379 
	C327.290649,287.684692 330.018402,288.004883 332.684723,288.004852 
	C566.327515,288.002991 799.970337,288.002045 1033.613159,288.005005 
	C1052.111084,288.005219 1052.273315,288.018250 1052.281860,307.040100 
	C1052.337524,431.693420 1052.317383,556.346741 1052.322144,682.000122 
z"/>
<path fill="#123D67" opacity="1.000000" stroke="none" 
	d="
M2403.363037,1848.878906 
	C2401.889893,1851.057983 2400.572510,1853.452026 2399.216064,1853.474243 
	C2383.329102,1853.736450 2367.436523,1853.642334 2351.096680,1853.642334 
	C2350.536621,1850.074829 2349.898193,1847.535034 2349.788086,1844.972656 
	C2349.588379,1840.314087 2349.688477,1835.642090 2349.688477,1830.975708 
	C2349.686035,1435.325928 2349.783447,1039.676270 2349.624268,644.026489 
	C2349.579834,533.059875 2348.781006,422.093536 2348.334473,311.127014 
	C2348.318359,307.127472 2348.247803,303.122681 2348.410156,299.128815 
	C2349.042969,283.568359 2353.484619,270.032928 2366.190674,259.508240 
	C2375.644531,251.677139 2383.754395,242.229553 2392.533691,233.573761 
	C2395.057373,231.085678 2397.826660,228.846695 2401.530518,225.565765 
	C2402.489258,229.137527 2403.303955,231.185486 2403.538818,233.297913 
	C2403.832031,235.934067 2403.664307,238.623322 2403.666992,241.289688 
	C2403.884277,452.606293 2403.999756,663.923096 2404.342529,875.239441 
	C2404.657959,1069.535889 2405.484863,1263.831909 2405.573975,1458.128296 
	C2405.631104,1583.093872 2404.770020,1708.060059 2404.275391,1833.025757 
	C2404.255859,1838.015503 2403.769531,1843.003296 2403.363037,1848.878906 
z"/>
<path fill="#123C67" opacity="1.000000" stroke="none" 
	d="
M176.318268,1272.000000 
	C176.164032,1465.277466 176.011246,1657.554810 175.806549,1849.832275 
	C175.805603,1850.723267 175.065735,1851.613403 174.317581,1853.301147 
	C158.427643,1854.455688 142.328262,1854.301514 125.512642,1853.359741 
	C125.064903,1849.725708 124.395767,1846.834229 124.396690,1843.943115 
	C124.576195,1280.106201 124.802032,716.269226 125.113144,152.432297 
	C125.113739,151.350662 126.399384,150.269760 127.785805,148.082611 
	C131.372208,150.997025 134.898392,153.333374 137.779129,156.297104 
	C148.922089,167.761002 159.942841,179.347137 170.834213,191.050507 
	C175.547287,196.114944 177.931717,201.955795 176.715286,209.296814 
	C175.853561,214.497208 176.328232,219.930939 176.328064,225.260513 
	C176.316818,573.840332 176.318024,922.420166 176.318268,1272.000000 
z"/>
<path fill="#123C67" opacity="1.000000" stroke="none" 
	d="
M2430.326172,579.999878 
	C2430.326416,457.691071 2430.463135,336.381866 2430.118652,215.074051 
	C2430.083496,202.747269 2433.511230,193.484879 2442.609863,185.122421 
	C2453.123779,175.459015 2462.418945,164.473907 2472.319092,154.135254 
	C2474.294189,152.072662 2476.611328,150.337219 2479.718994,147.622055 
	C2480.838135,151.013809 2481.944580,153.041199 2482.108887,155.142242 
	C2482.445557,159.450867 2482.312500,163.798950 2482.312744,168.130768 
	C2482.317871,723.351868 2482.319336,1278.572998 2482.300537,1833.794067 
	C2482.300293,1840.015991 2482.037598,1846.237915 2481.889893,1852.790405 
	C2478.422607,1853.297974 2476.188721,1853.890259 2473.950195,1853.908203 
	C2462.286865,1854.001831 2450.619385,1854.105713 2438.959229,1853.889282 
	C2431.927979,1853.758911 2430.874023,1852.620972 2430.462891,1845.739746 
	C2430.185059,1841.089111 2430.329590,1836.411865 2430.329590,1831.746460 
	C2430.325684,1414.830933 2430.325928,997.915466 2430.326172,579.999878 
z"/>
<path fill="#123D68" opacity="1.000000" stroke="none" 
	d="
M279.693604,1360.000000 
	C279.693787,1013.756958 279.693085,668.513916 279.704651,323.270905 
	C279.704803,318.608154 279.525574,313.908722 280.032227,309.292511 
	C280.589630,304.214447 283.415161,303.128662 287.575409,306.021912 
	C288.930084,306.964020 290.093628,308.199982 291.270996,309.375244 
	C303.299438,321.382141 315.268311,333.449036 327.349335,345.402649 
	C333.153687,351.145752 336.120850,357.520691 334.638062,366.023682 
	C333.734161,371.206970 334.313354,376.657776 334.313293,381.988434 
	C334.305328,866.195129 334.307465,1350.401855 334.286133,1834.608521 
	C334.285889,1840.512939 333.991058,1846.417358 333.813446,1853.082764 
	C315.638458,1854.772217 298.567322,1853.898682 281.843903,1853.636475 
	C280.947662,1851.625977 280.204742,1850.736816 280.203644,1849.846680 
	C279.999084,1686.897827 279.847351,1523.948975 279.693604,1360.000000 
z"/>
<path fill="#123C67" opacity="1.000000" stroke="none" 
	d="
M2326.317627,540.000122 
	C2326.317627,977.942993 2326.317627,1414.885864 2326.317627,1851.871094 
	C2323.780518,1852.750732 2322.274414,1853.711792 2320.756836,1853.730347 
	C2307.427246,1853.892944 2294.093506,1854.045654 2280.765869,1853.861328 
	C2274.556152,1853.775635 2273.305420,1852.381104 2272.568359,1846.199341 
	C2272.215332,1843.235474 2272.336426,1840.208618 2272.336426,1837.210205 
	C2272.328369,1347.885864 2272.351807,858.561584 2272.183838,369.237335 
	C2272.180176,358.431976 2275.178467,350.059174 2283.162842,342.680969 
	C2294.415283,332.282867 2304.916748,321.074646 2315.820557,310.294769 
	C2318.275635,307.867615 2321.065186,305.779022 2323.667236,303.563171 
	C2324.982666,305.085754 2325.758301,305.563873 2325.759521,306.044220 
	C2325.981934,383.696075 2326.148682,461.348083 2326.317627,540.000122 
z"/>
<path fill="#123C66" opacity="1.000000" stroke="none" 
	d="
M2169.685059,1536.000000 
	C2169.684570,1637.309204 2169.689941,1737.618408 2169.677490,1837.927612 
	C2169.675537,1853.975464 2169.638672,1853.982300 2153.872803,1854.002319 
	C2144.541748,1854.014282 2135.209961,1854.056763 2125.879639,1853.967773 
	C2122.632324,1853.936646 2119.388428,1853.551514 2115.673828,1853.295654 
	C2115.165039,1850.059570 2114.544678,1847.512207 2114.411377,1844.939575 
	C2114.204834,1840.950562 2114.316406,1836.944336 2114.316162,1832.945435 
	C2114.314209,1399.383057 2114.375488,965.820496 2114.048828,532.258301 
	C2114.038086,517.815613 2117.309082,506.714172 2128.453125,497.198242 
	C2139.313232,487.924713 2148.943604,477.216400 2159.204834,467.231628 
	C2161.250244,465.241302 2163.707031,463.673676 2166.935791,461.163544 
	C2168.094727,464.285583 2169.317627,466.235199 2169.470703,468.265472 
	C2169.820312,472.907013 2169.680420,477.588013 2169.680420,482.253021 
	C2169.685547,833.168701 2169.685303,1184.084351 2169.685059,1536.000000 
z"/>
<path fill="#123C67" opacity="1.000000" stroke="none" 
	d="
M2194.326172,887.999878 
	C2194.326172,745.340515 2194.325439,603.681152 2194.329346,462.021790 
	C2194.329590,457.688965 2194.260742,453.351379 2194.431152,449.024200 
	C2194.914795,436.740570 2199.783691,427.008514 2209.354980,418.754395 
	C2218.372803,410.977631 2225.906982,401.486420 2234.154053,392.806732 
	C2237.006592,389.804535 2240.040039,386.974274 2244.135498,382.937195 
	C2245.153809,386.878052 2246.036865,388.957336 2246.167725,391.082855 
	C2246.433105,395.400970 2246.314697,399.744110 2246.314697,404.076935 
	C2246.318115,880.385742 2246.317871,1356.694458 2246.317871,1833.003296 
	C2246.317871,1839.286621 2246.317871,1845.569946 2246.317871,1852.211182 
	C2243.094238,1852.941284 2240.920654,1853.833618 2238.735840,1853.861572 
	C2227.072021,1854.011841 2215.402832,1854.097534 2203.740723,1853.898071 
	C2196.723145,1853.778076 2195.210938,1852.240723 2194.565918,1844.940674 
	C2194.156494,1840.306641 2194.333008,1835.616089 2194.333008,1830.950928 
	C2194.325195,1516.967285 2194.325928,1202.983643 2194.326172,887.999878 
z"/>
<path fill="#123C67" opacity="1.000000" stroke="none" 
	d="
M409.032501,429.806030 
	C410.429840,433.554779 411.745758,436.626678 412.163300,439.816162 
	C412.635406,443.422394 412.314972,447.134277 412.314972,450.800201 
	C412.317047,912.052612 412.318726,1373.305054 412.297516,1834.557495 
	C412.297272,1840.465698 412.004181,1846.373779 411.826752,1853.075684 
	C395.016815,1854.597168 379.278595,1854.279297 362.638702,1853.272339 
	C362.288055,1848.358887 361.734497,1844.147705 361.723297,1839.935059 
	C361.227539,1653.329956 360.532318,1466.725098 360.383850,1280.119629 
	C360.161133,1000.168884 360.301025,720.217834 360.388885,440.266968 
	C360.394104,423.632324 361.283325,406.997253 361.829346,390.364594 
	C361.882446,388.745911 362.419159,387.143066 362.698334,385.703247 
	C366.501740,383.679199 369.045044,385.771881 370.641602,388.201721 
	C381.012604,403.985657 395.916321,415.528809 409.032501,429.806030 
z"/>
<path fill="#123C67" opacity="1.000000" stroke="none" 
	d="
M492.318268,1596.000000 
	C492.318390,1681.929321 492.318390,1766.858521 492.318390,1851.640259 
	C490.142822,1852.620361 488.977966,1853.592041 487.800629,1853.607300 
	C473.810791,1853.789551 459.819061,1853.823364 445.827911,1853.909668 
	C440.866852,1853.940186 438.509094,1851.410278 438.458191,1846.540771 
	C438.426819,1843.542358 438.332520,1840.544067 438.332489,1837.545776 
	C438.326660,1384.010132 438.323822,930.474548 438.368469,476.938965 
	C438.368927,472.175964 438.997284,467.413025 439.497528,460.305420 
	C445.051788,464.660614 448.937469,467.118713 452.103333,470.294464 
	C464.092255,482.320770 475.766815,494.660370 487.743164,506.699493 
	C491.070923,510.044678 492.485352,513.716003 492.318787,518.313171 
	C492.162079,522.639099 492.316132,526.975952 492.316132,531.307983 
	C492.317902,885.872009 492.317993,1240.436035 492.318268,1596.000000 
z"/>
<path fill="#123D68" opacity="1.000000" stroke="none" 
	d="
M630.000000,366.010559 
	C743.936768,366.010559 856.873535,366.010559 970.975098,366.010559 
	C971.473633,370.228241 972.204590,373.697327 972.246033,377.174622 
	C972.777344,421.799347 973.502869,466.424530 973.614197,511.050995 
	C973.973206,655.004395 974.204956,798.958313 974.267334,942.912170 
	C974.300171,1018.550293 973.926880,1094.188843 973.597717,1169.826538 
	C973.557190,1179.129150 972.576416,1188.424805 972.184387,1197.730225 
	C971.996155,1202.197266 969.880371,1204.582520 965.451111,1204.612549 
	C952.792297,1204.698242 940.132568,1204.719971 927.473450,1204.677612 
	C922.084900,1204.659546 919.730164,1201.648682 919.774170,1196.413818 
	C919.810608,1192.082642 919.692993,1187.750366 919.692932,1183.418579 
	C919.688171,937.152832 919.689575,690.887024 919.679626,444.621277 
	C919.679443,439.957642 919.868103,435.261780 919.401306,430.638245 
	C918.774963,424.434235 916.658569,422.549774 910.502625,422.118286 
	C906.853333,421.862518 903.174927,421.996674 899.509644,421.996582 
	C754.549377,421.992188 609.588867,421.865265 464.629456,422.218170 
	C452.168671,422.248505 443.171967,418.334778 434.983459,409.270233 
	C424.948212,398.161255 413.764160,388.095367 403.218994,377.437775 
	C400.801636,374.994598 398.965027,371.976776 395.361420,367.260742 
	C402.149536,366.720795 406.604126,366.061584 411.059296,366.057617 
	C483.706146,365.992889 556.353088,366.011047 630.000000,366.010559 
z"/>
<path fill="#123C67" opacity="1.000000" stroke="none" 
	d="
M570.317749,1778.000000 
	C570.317932,1803.280884 570.317932,1827.561768 570.317932,1853.134644 
	C551.522156,1854.771851 533.841248,1853.743408 515.333313,1853.858765 
	C514.933899,1848.279663 514.365051,1844.057129 514.367126,1839.834839 
	C514.580078,1407.353394 514.834656,974.871887 515.181091,542.390442 
	C515.181885,541.352661 516.570374,540.315979 518.002869,538.309021 
	C521.352844,540.867004 524.685669,542.906921 527.403259,545.573853 
	C539.531433,557.476257 551.375854,569.668945 563.553040,581.520081 
	C568.445251,586.281189 570.847229,591.602295 570.360840,598.436218 
	C570.054077,602.745728 570.316650,607.095520 570.316650,611.427246 
	C570.317383,999.951477 570.317444,1388.475708 570.317749,1778.000000 
z"/>
<path fill="#123D68" opacity="1.000000" stroke="none" 
	d="
M2092.304199,554.323181 
	C2092.305176,987.503296 2092.305176,1419.726929 2092.305176,1852.903809 
	C2073.999268,1854.828979 2056.922363,1853.934448 2039.267578,1853.618530 
	C2038.665039,1850.276001 2037.961792,1847.765503 2037.811646,1845.222168 
	C2037.576172,1841.235596 2037.696777,1837.226685 2037.696777,1833.227295 
	C2037.694092,1424.601196 2037.685303,1015.975098 2037.718872,607.348999 
	C2037.720581,585.375488 2036.019287,590.300842 2050.904541,575.198792 
	C2060.730957,565.229309 2070.625977,555.324951 2080.638428,545.543335 
	C2083.093750,543.144897 2086.129639,541.341125 2090.874023,537.782227 
	C2091.493652,544.540710 2091.898193,548.953674 2092.304199,554.323181 
z"/>
<path fill="#123C67" opacity="1.000000" stroke="none" 
	d="
M1958.325928,1811.999512 
	C1958.325928,1437.459961 1958.406128,1063.920410 1958.033569,690.381287 
	C1958.018555,675.401306 1962.119629,664.355347 1973.205688,654.523071 
	C1983.881714,645.054321 1993.250000,634.112732 2003.223511,623.847778 
	C2004.571533,622.460266 2006.096802,621.244812 2008.484253,619.102295 
	C2009.251343,622.157898 2010.029541,624.173462 2010.211792,626.241638 
	C2010.474243,629.218689 2010.315796,632.233826 2010.315796,635.232727 
	C2010.317505,1035.429810 2010.319458,1435.626831 2010.294800,1835.823975 
	C2010.294434,1841.377075 2009.957764,1846.930298 2009.755371,1853.177124 
	C1992.457153,1854.500366 1976.357056,1854.255005 1959.167480,1853.375610 
	C1957.559814,1839.465332 1958.667847,1826.197021 1958.325928,1811.999512 
z"/>
<path fill="#123D67" opacity="1.000000" stroke="none" 
	d="
M595.686279,1182.000000 
	C595.686340,1129.350098 595.626221,1077.699951 595.698669,1026.050171 
	C595.877991,898.099304 596.091797,770.148438 596.404968,642.197876 
	C596.421875,635.296570 597.475952,628.397827 598.241821,619.146912 
	C602.837524,622.623352 606.180298,624.509521 608.703796,627.172119 
	C619.693542,638.767578 630.305725,650.722351 641.349121,662.265076 
	C646.009338,667.136047 648.753845,672.375244 648.323303,679.196594 
	C648.134705,682.183228 648.311951,685.192505 648.311951,688.191528 
	C648.313049,1070.401001 648.315308,1452.610596 648.292480,1834.820068 
	C648.292114,1840.707153 647.983093,1846.594238 647.797913,1853.202393 
	C631.066284,1853.202393 615.570679,1853.202393 598.931396,1853.202393 
	C598.521667,1849.997559 597.815002,1846.842285 597.760559,1843.675781 
	C597.221863,1812.382690 596.431702,1781.088379 596.393311,1749.793335 
	C596.240051,1624.834106 596.399475,1499.874390 596.301331,1374.914917 
	C596.251038,1310.943115 595.901001,1246.971680 595.686279,1182.000000 
z"/>
<path fill="#123C67" opacity="1.000000" stroke="none" 
	d="
M894.321167,1090.000000 
	C894.320435,1123.664429 894.323792,1156.328735 894.311157,1188.993164 
	C894.309998,1191.991821 894.240784,1194.991699 894.140259,1197.988892 
	C894.010315,1201.862305 892.119690,1204.557739 888.151917,1204.611084 
	C873.832214,1204.803955 859.508118,1204.842163 845.187744,1204.710327 
	C840.821533,1204.670288 838.624695,1201.838745 838.498718,1197.539307 
	C838.371826,1193.209473 838.329407,1188.875732 838.329285,1184.543701 
	C838.321472,962.892578 838.323364,741.241394 838.312866,519.590271 
	C838.312683,515.259155 838.256104,510.924805 838.082458,506.597748 
	C837.911499,502.337189 835.663208,499.610809 831.363159,499.320190 
	C823.407288,498.782532 815.433105,498.316132 807.463074,498.252228 
	C801.149658,498.201630 794.831177,499.060974 788.514709,499.065765 
	C708.187012,499.126526 627.859253,499.106812 547.531555,499.101990 
	C544.198730,499.101807 540.865540,499.069946 537.533142,499.013153 
	C528.855408,498.865204 521.439636,496.173950 515.219788,489.658722 
	C503.256927,477.127716 490.856537,465.015228 478.724274,452.644165 
	C477.179779,451.069244 476.154510,448.985077 474.242767,446.193695 
	C477.135223,445.305695 479.120331,444.392578 481.186493,444.138214 
	C483.815399,443.814514 486.510010,444.006683 489.176300,444.006622 
	C618.500610,444.003723 747.824890,444.001495 877.149170,444.007324 
	C894.279053,444.008118 894.313171,444.027985 894.313843,461.044098 
	C894.322510,670.362732 894.320374,879.681335 894.321167,1090.000000 
z"/>
<path fill="#123D68" opacity="1.000000" stroke="none" 
	d="
M762.678101,1200.827148 
	C762.096680,1194.328857 761.715271,1188.676270 761.714355,1183.023804 
	C761.683472,989.387024 761.689575,795.750305 761.681091,602.113525 
	C761.680908,597.782104 761.856384,593.424194 761.451965,589.125427 
	C760.815186,582.356506 758.755859,580.515869 751.993164,580.081116 
	C749.004883,579.889038 745.996277,579.996277 742.996887,579.995850 
	C700.003540,579.990051 657.008667,579.803894 614.018066,580.145386 
	C605.558044,580.212524 599.222961,577.218140 593.638977,571.515747 
	C581.769470,559.394592 569.914917,547.258850 558.073730,535.110168 
	C556.685608,533.685974 555.158630,532.299072 554.152710,530.621094 
	C552.195618,527.356628 553.422729,524.757446 557.178345,524.042297 
	C558.784668,523.736389 560.494202,523.962585 562.156799,523.962891 
	C641.144531,523.978088 720.132202,523.994934 799.119934,524.011475 
	C803.408264,524.012329 807.696594,524.011597 812.839294,524.011597 
	C813.855774,528.467041 814.848145,532.211853 815.519897,536.013245 
	C815.863342,537.956970 815.655334,540.002258 815.657654,542.001648 
	C815.876526,730.298157 816.122437,918.594727 816.273804,1106.891235 
	C816.296265,1134.880127 815.884216,1162.869263 815.635071,1190.858032 
	C815.611389,1193.514282 815.508728,1196.198853 815.095154,1198.815308 
	C814.575928,1202.100830 812.620239,1204.454834 809.125854,1204.462524 
	C795.147949,1204.493530 781.168335,1204.416626 767.193726,1204.149780 
	C765.799011,1204.123169 764.434204,1202.535889 762.678101,1200.827148 
z"/>
<path fill="#123C66" opacity="1.000000" stroke="none" 
	d="
M684.314941,1036.000000 
	C684.314453,915.043945 684.159241,795.087341 684.544189,675.132507 
	C684.584290,662.652466 680.816284,653.789917 671.447449,645.666382 
	C659.408264,635.227417 648.565247,623.402832 637.301331,612.081238 
	C635.096863,609.865540 633.323181,607.221130 630.328918,603.506714 
	C634.302551,602.786987 636.418030,602.074768 638.535278,602.069763 
	C668.822449,601.998169 699.110168,601.950134 729.397034,602.068298 
	C738.072083,602.102173 739.150391,603.351379 739.608032,611.893555 
	C739.768250,614.884705 739.682739,617.889954 739.682739,620.888733 
	C739.685242,809.153137 739.696472,997.417480 739.666199,1185.681885 
	C739.663391,1203.139404 741.939148,1205.557495 720.590759,1205.205200 
	C711.954529,1205.062744 703.306885,1205.311157 694.680115,1204.976440 
	C685.952271,1204.638306 684.666199,1203.056396 684.359802,1193.942261 
	C684.259094,1190.946411 684.316162,1187.945068 684.316040,1184.946167 
	C684.314209,1135.630737 684.314819,1086.315430 684.314941,1036.000000 
z"/>
</svg>