<svg xmlns="http://www.w3.org/2000/svg" xmlns:xlink="http://www.w3.org/1999/xlink" id="body_1" width="55" height="36">

    <g transform="matrix(0.19780222 0 0 0.19780222 0.40659076 -0)">
        <g transform="matrix(0.1 0 -0 -0.1 0 182)">
            <path d="M2068 1813L1410 1810L1410 1225L1410 640L1068 640C 728 640 727 640 745 620C 762 601 776 600 1112 600L1112 600L1460 600L1460 1180L1460 1760L2068 1760L2676 1760L2705 1790C 2721 1807 2732 1819 2729 1818C 2727 1816 2429 1814 2068 1813z" stroke="none" fill="#000000" fill-rule="nonzero" />
            <path d="M50 1785L73 1760L687 1760L1300 1760L1300 1230L1300 700L1325 700L1350 700L1350 1255L1350 1810L688 1810L27 1810L50 1785z" stroke="none" fill="#000000" fill-rule="nonzero" />
            <path d="M8 897L5 10L33 10L60 10L60 873L60 1737L35 1760L10 1783L8 897z" stroke="none" fill="#000000" fill-rule="nonzero" />
            <path d="M2723 1758L2700 1734L2700 872L2700 10L2728 10L2755 10L2752 582C 2751 897 2749 1296 2747 1468L2747 1468L2745 1782L2723 1758z" stroke="none" fill="#000000" fill-rule="nonzero" />
            <path d="M133 1705L161 1680L691 1680L1220 1680L1220 1190C 1220 707 1220 700 1240 700C 1260 700 1260 707 1260 1215L1260 1215L1260 1730L683 1730L105 1729L133 1705z" stroke="none" fill="#000000" fill-rule="nonzero" />
            <path d="M1490 1145L1490 560L1148 560L807 560L830 535L853 510L1202 510L1550 510L1550 1095L1550 1680L2073 1680L2597 1680L2620 1705L2643 1730L2067 1730L1490 1730L1490 1145z" stroke="none" fill="#000000" fill-rule="nonzero" />
            <path d="M90 857L90 10L120 10L150 10L150 828L150 1646L120 1675L90 1704L90 857z" stroke="none" fill="#000000" fill-rule="nonzero" />
            <path d="M2637 1672C 2621 1655 2620 1582 2620 832C 2620 17 2620 10 2640 10C 2660 10 2660 17 2660 850C 2660 1312 2658 1690 2657 1690C 2655 1690 2646 1682 2637 1672z" stroke="none" fill="#000000" fill-rule="nonzero" />
            <path d="M200 1645C 200 1642 212 1628 228 1615L228 1615L255 1591L693 1590L1130 1590L1130 1145L1130 700L1155 700L1180 700L1180 1175L1180 1650L690 1650C 421 1650 200 1648 200 1645z" stroke="none" fill="#000000" fill-rule="nonzero" />
            <path d="M1580 1065L1580 480L1234 480L888 480L918 455L948 430L1289 430L1630 430L1630 1009L1630 1587L1713 1593C 1758 1597 1957 1600 2156 1600L2156 1600L2517 1600L2540 1625L2563 1650L2072 1650L1580 1650L1580 1065z" stroke="none" fill="#000000" fill-rule="nonzero" />
            <path d="M180 818L180 10L205 10L230 10L230 787L229 1565L205 1595L180 1625L180 818z" stroke="none" fill="#000000" fill-rule="nonzero" />
            <path d="M2553 1594L2530 1568L2530 789L2530 10L2555 10L2580 10L2580 815C 2580 1258 2579 1620 2578 1620C 2576 1620 2565 1608 2553 1594z" stroke="none" fill="#000000" fill-rule="nonzero" />
            <path d="M310 1535L333 1510L687 1510L1040 1510L1040 1104L1040 699L1068 702L1095 705L1098 1133L1100 1560L693 1560L287 1560L310 1535z" stroke="none" fill="#000000" fill-rule="nonzero" />
            <path d="M1660 975L1660 390L1323 390L987 390L1010 365L1034 340L1374 342L1715 345L1718 928L1720 1510L2073 1510L2427 1510L2450 1535L2473 1560L2067 1560L1660 1560L1660 975z" stroke="none" fill="#000000" fill-rule="nonzero" />
            <path d="M260 772L260 10L290 10L320 10L320 743L320 1476L290 1505L260 1534L260 772z" stroke="none" fill="#000000" fill-rule="nonzero" />
            <path d="M2467 1512C 2451 1495 2450 1428 2450 752L2450 752L2450 10L2475 10L2500 10L2500 770C 2500 1188 2496 1530 2492 1530C 2487 1530 2476 1522 2467 1512z" stroke="none" fill="#000000" fill-rule="nonzero" />
            <path d="M390 1455L413 1430L687 1430L960 1430L960 1064L960 699L988 702L1015 705L1015 1090L1015 1475L691 1478L366 1480L390 1455z" stroke="none" fill="#000000" fill-rule="nonzero" />
            <path d="M1750 895L1750 310L1408 310L1067 310L1090 285L1113 260L1457 260L1800 260L1800 845L1800 1430L2073 1430L2347 1430L2370 1455L2393 1480L2072 1480L1750 1480L1750 895z" stroke="none" fill="#000000" fill-rule="nonzero" />
            <path d="M340 731L340 10L370 10L400 10L400 703C 399 1424 400 1405 358 1439C 341 1452 340 1417 340 731z" stroke="none" fill="#000000" fill-rule="nonzero" />
            <path d="M2382 1427L2360 1404L2360 707L2360 10L2385 10L2410 10L2410 730C 2410 1126 2409 1450 2407 1450C 2405 1450 2394 1440 2382 1427z" stroke="none" fill="#000000" fill-rule="nonzero" />
            <path d="M475 1370C 492 1351 506 1350 681 1350L681 1350L870 1350L872 1028L875 705L903 702L930 699L930 1044L930 1390L693 1390C 458 1390 457 1390 475 1370z" stroke="none" fill="#000000" fill-rule="nonzero" />
            <path d="M1830 810L1830 230L1488 230L1146 230L1175 200L1204 170L1542 170L1880 170L1882 758L1885 1345L2076 1348C 2252 1350 2269 1352 2285 1370C 2303 1390 2302 1390 2067 1390L2067 1390L1830 1390L1830 810z" stroke="none" fill="#000000" fill-rule="nonzero" />
            <path d="M2302 1347L2280 1324L2280 667L2280 10L2305 10L2330 10L2330 690C 2330 1064 2329 1370 2327 1370C 2325 1370 2314 1360 2302 1347z" stroke="none" fill="#000000" fill-rule="nonzero" />
            <path d="M430 685L430 10L455 10L480 10L480 669L480 1328L455 1344L430 1360L430 685z" stroke="none" fill="#000000" fill-rule="nonzero" />
            <path d="M560 1285C 582 1261 590 1260 687 1260L687 1260L790 1260L790 980L790 700L820 700L850 700L850 1005L850 1310L693 1310L537 1310L560 1285z" stroke="none" fill="#000000" fill-rule="nonzero" />
            <path d="M1920 730L1920 150L1573 150L1226 150L1255 120L1284 90L1624 92L1965 95L1968 678L1970 1260L2073 1260C 2170 1260 2178 1261 2200 1285L2200 1285L2223 1310L2072 1310L1920 1310L1920 730z" stroke="none" fill="#000000" fill-rule="nonzero" />
            <path d="M2217 1262L2190 1234L2190 622L2190 10L2220 10L2250 10L2250 650C 2250 1002 2249 1290 2247 1290C 2245 1290 2232 1277 2217 1262z" stroke="none" fill="#000000" fill-rule="nonzero" />
            <path d="M520 647C 520 17 520 10 540 10C 560 10 560 17 560 628C 560 1234 560 1247 540 1265C 520 1283 520 1282 520 647z" stroke="none" fill="#000000" fill-rule="nonzero" />
            <path d="M639 1206C 652 1192 671 1180 682 1178C 706 1175 707 1163 709 878L709 878L710 700L735 700L760 700L760 965L760 1230L688 1230L617 1230L639 1206z" stroke="none" fill="#000000" fill-rule="nonzero" />
            <path d="M2000 645L2000 60L1658 60L1317 60L1340 35L1363 10L1707 10L2050 10L2052 593L2055 1175L2076 1178C 2088 1180 2108 1192 2121 1206L2121 1206L2143 1230L2072 1230L2000 1230L2000 645z" stroke="none" fill="#000000" fill-rule="nonzero" />
            <path d="M600 604L600 5L625 5L650 5L650 581L650 1157L625 1180L600 1203L600 604z" stroke="none" fill="#000000" fill-rule="nonzero" />
            <path d="M2127 1172C 2112 1155 2110 1100 2110 582L2110 582L2110 10L2135 10L2160 10L2160 600C 2160 925 2156 1190 2152 1190C 2147 1190 2136 1182 2127 1172z" stroke="none" fill="#000000" fill-rule="nonzero" />
        </g>
    </g>
    </svg>